<?xml version="1.0" encoding="UTF-8" standalone="no"?>
<!-- Created with Inkscape (http://www.inkscape.org/) -->

<svg
   xmlns:dc="http://purl.org/dc/elements/1.1/"
   xmlns:cc="http://creativecommons.org/ns#"
   xmlns:rdf="http://www.w3.org/1999/02/22-rdf-syntax-ns#"
   xmlns:svg="http://www.w3.org/2000/svg"
   xmlns="http://www.w3.org/2000/svg"
   xmlns:sodipodi="http://sodipodi.sourceforge.net/DTD/sodipodi-0.dtd"
   xmlns:inkscape="http://www.inkscape.org/namespaces/inkscape"
   width="179.84081mm"
   height="38.425808mm"
   viewBox="0 0 179.84081 38.425808"
   version="1.1"
   id="svg8"
   inkscape:version="0.92.2 (5c3e80d, 2017-08-06)"
   sodipodi:docname="logo-text-h.svg">
  <defs
     id="defs2" />
  <sodipodi:namedview
     id="base"
     pagecolor="#ffffff"
     bordercolor="#666666"
     borderopacity="1.0"
     inkscape:pageopacity="0.0"
     inkscape:pageshadow="2"
     inkscape:zoom="0.8970635"
     inkscape:cx="273.45265"
     inkscape:cy="149.45829"
     inkscape:document-units="mm"
     inkscape:current-layer="layer1"
     showgrid="false"
     fit-margin-top="0"
     fit-margin-left="0"
     fit-margin-right="0"
     fit-margin-bottom="0"
     inkscape:window-width="1366"
     inkscape:window-height="705"
     inkscape:window-x="-8"
     inkscape:window-y="-8"
     inkscape:window-maximized="1" />
  <metadata
     id="metadata5">
    <rdf:RDF>
      <cc:Work
         rdf:about="">
        <dc:format>image/svg+xml</dc:format>
        <dc:type
           rdf:resource="http://purl.org/dc/dcmitype/StillImage" />
        <dc:title></dc:title>
      </cc:Work>
    </rdf:RDF>
  </metadata>
  <g
     inkscape:label="Layer 1"
     inkscape:groupmode="layer"
     id="layer1"
     transform="translate(-129.53123,-69.64963)">
    <g
       id="g21"
       transform="matrix(0.43862319,0,0,0.43862319,82.547886,49.885366)">
      <g
         style="fill:#000000"
         transform="matrix(1,0,0,-1,0,177.72507)"
         id="g846">
        <path
           sodipodi:nodetypes="caaccaaccaacccaaccaacaacccaacaacccacacc"
           inkscape:connector-curvature="0"
           id="path842"
           d="m 172.95869,45.059782 c 0,0 5.27134,14.953059 4.39456,22.566064 -0.63375,5.502755 -2.95217,11.178465 -6.80113,15.161865 -3.30609,3.421573 -12.81524,6.285405 -12.81524,6.285405 -0.26154,-1.02829 -0.64768,-2.014141 -1.14825,-2.931605 0,0 9.31621,-3.689993 12.43232,-7.36234 2.89065,-3.406636 4.13248,-8.082766 4.8612,-12.490712 1.15526,-6.988067 -0.92346,-21.228677 -0.92346,-21.228677 z m 13.88804,22.818246 c 0,0 0.81725,11.628247 -1.66863,16.60467 -1.99766,3.999065 -5.76845,7.293533 -9.86348,9.086265 -5.351,2.342575 -17.46663,1.415937 -17.46663,1.415937 0.19417,-0.889204 0.29455,-1.79959 0.2992,-2.71353 -0.001,-0.02998 -0.003,-0.05995 -0.004,-0.08992 0,0 11.43887,0.880273 16.39434,-1.475361 3.48669,-1.657434 6.14347,-4.954762 8.08788,-8.289933 2.54155,-4.359426 4.22132,-14.538128 4.22132,-14.538128 z m -29.2194,27.993638 c 0,0 10.785,0.229675 15.20165,2.894397 4.03819,2.436387 7.06029,6.686877 8.82169,11.061857 2.30553,5.7265 1.70687,18.44073 1.70687,18.44073 0,0 -1.57735,-11.5645 -4.03903,-16.75556 -1.74076,-3.67082 -3.99164,-7.44847 -7.36699,-9.70949 -4.31313,-2.889205 -15.05593,-3.984248 -15.05593,-3.984248 0.29574,-0.624724 0.54059,-1.276446 0.73174,-1.947686 z m -2.33991,4.450894 c 0,0 7.57514,2.14053 10.30945,4.75733 3.12686,2.99249 5.50966,7.234 5.9526,11.53935 0.56816,5.52246 -4.46174,16.04605 -4.46174,16.04605 0,0 2.15614,-10.33799 1.28933,-15.42387 -0.60842,-3.56982 -1.94997,-7.28584 -4.44004,-9.91516 -2.66984,-2.81915 -10.35647,-5.33145 -10.35647,-5.33145 0.62078,-0.49142 1.19282,-1.05186 1.70687,-1.67225 z m -4.21421,3.15536 c 0,0 2.36214,3.04699 2.15129,4.78214 -0.19797,1.62921 -3.03651,3.87573 -3.03651,3.87573 0,0 1.15821,-2.6918 0.84491,-4.02714 -0.37415,-1.5947 -3.04271,-3.85869 -3.04271,-3.85869 1.05638,-0.0952 2.09468,-0.3552 3.08302,-0.77204 z"
           style="fill:#000000;stroke-width:0.26458335" />
        <path
           style="fill:#000000;stroke-width:1.00000012"
           d="m 457.82227,170.30469 c 0,0 -19.92321,56.5155 -16.60938,85.28906 2.39527,20.79782 11.15783,42.24932 25.70508,57.30469 12.49547,12.93193 48.43555,23.75586 48.43555,23.75586 0.9885,-3.88645 2.44792,-7.6125 4.33984,-11.08008 0,0 -35.21085,-13.94644 -46.98828,-27.82617 -10.92529,-12.87548 -15.61883,-30.54904 -18.37305,-47.20899 -4.36636,-26.41159 3.49024,-80.23437 3.49024,-80.23437 z m -52.49024,86.24219 c 0,0 -3.08881,43.94928 6.30664,62.75781 7.55021,15.11458 21.80202,27.56611 37.2793,34.34179 20.22427,8.85383 66.01562,5.35157 66.01562,5.35157 -0.73389,-3.36077 -1.11329,-6.8016 -1.13086,-10.25586 0.005,-0.1133 0.01,-0.22659 0.0156,-0.33985 0,0 -43.23355,3.32702 -61.96289,-5.57617 -13.17804,-6.26432 -23.21937,-18.72669 -30.56836,-31.33203 -9.60594,-16.47657 -15.95505,-54.94726 -15.95505,-54.94726 z m 110.43555,105.80273 c 0,0 -40.76223,0.86805 -57.45508,10.93945 -15.26246,9.20839 -26.68455,25.27324 -33.3418,41.8086 -8.7138,21.64345 -6.45117,69.69726 -6.45117,69.69726 0,0 5.96164,-43.70837 15.26563,-63.32812 6.57925,-13.87398 15.08653,-28.15168 27.84375,-36.69727 16.30159,-10.91983 56.90429,-15.05859 56.90429,-15.05859 -1.11776,-2.36116 -2.04318,-4.82436 -2.76562,-7.36133 z m 8.84375,16.82227 c 0,0 -28.63045,8.09018 -38.96485,17.98046 -11.81806,11.31018 -20.82393,27.34109 -22.49804,43.61328 -2.14737,20.87227 16.86328,60.64649 16.86328,60.64649 0,0 -8.1492,-39.07269 -4.87305,-58.29492 2.29955,-13.49224 7.36995,-27.53701 16.78125,-37.47461 10.09075,-10.65505 39.14258,-20.15039 39.14258,-20.15039 -2.34627,-1.85733 -4.50833,-3.97553 -6.45117,-6.32031 z m 15.92773,11.92578 c 0,0 -8.92775,11.51616 -8.13086,18.07422 0.74824,6.15765 11.47657,14.64843 11.47657,14.64843 0,0 -4.37749,-10.17372 -3.19336,-15.2207 1.41412,-6.02721 11.5,-14.58399 11.5,-14.58399 -3.99261,-0.35979 -7.91691,-1.34251 -11.65235,-2.91796 z"
           id="path835"
           inkscape:connector-curvature="0"
           sodipodi:nodetypes="cssccssccsscccssccsscsscccsscsscccscscc"
           transform="scale(0.26458333)" />
      </g>
      <circle
         r="12.38764"
         cy="84.05056"
         cx="147.04541"
         id="path860"
         style="opacity:1;vector-effect:none;fill:#2b0000;fill-opacity:1;stroke:none;stroke-width:0.52916664;stroke-linecap:butt;stroke-linejoin:miter;stroke-miterlimit:4;stroke-dasharray:none;stroke-dashoffset:0;stroke-opacity:1" />
      <circle
         r="20.646067"
         cy="109.85814"
         cx="147.04541"
         id="path862"
         style="opacity:1;vector-effect:none;fill:#550000;fill-opacity:1;stroke:none;stroke-width:0.52916664;stroke-linecap:butt;stroke-linejoin:miter;stroke-miterlimit:4;stroke-dasharray:none;stroke-dashoffset:0;stroke-opacity:1" />
      <text
         id="text872"
         y="118.73631"
         x="128.13306"
         style="font-style:normal;font-variant:normal;font-weight:normal;font-stretch:normal;font-size:21.04454803px;line-height:1.25;font-family:'Courier New';-inkscape-font-specification:'Courier New';letter-spacing:0px;word-spacing:0px;fill:#ffffff;fill-opacity:1;stroke:none;stroke-width:0.52611369"
         xml:space="preserve"><tspan
           style="font-weight:bold;fill:#ffffff;stroke-width:0.52611369"
           y="118.73631"
           x="128.13306"
           id="tspan870"
           sodipodi:role="line">***</tspan></text>
    </g>
    <g
       id="g60"
       transform="translate(0,0.19235414)">
      <path
         d="m 185.88511,82.055594 q 0,0.896644 -0.95544,1.073033 -0.23519,0.0441 -1.6316,0.0294 1.26412,1.440509 1.26412,3.307292 0,2.645833 -2.36655,4.27743 3.68947,1.925579 3.68947,5.644445 0,2.910417 -2.45475,4.835996 -2.26366,1.77859 -5.26227,1.77859 -2.99861,0 -5.26227,-1.77859 -2.45474,-1.925579 -2.45474,-4.835996 0,-1.102431 1.10243,-1.102431 1.10243,0 1.10243,1.102431 0,1.984375 1.82269,3.263194 1.63159,1.146522 3.68946,1.146522 2.05787,0 3.68947,-1.146522 1.82269,-1.278819 1.82269,-3.263194 0,-1.984375 -1.82269,-3.263195 -1.6316,-1.146528 -3.68947,-1.146528 -2.48414,0 -4.36562,-1.484606 -2.02847,-1.602199 -2.02847,-4.027546 0,-2.425348 2.02847,-4.027547 1.88148,-1.484606 4.36562,-1.484606 h 6.61459 q 1.10243,0 1.10243,1.10243 z m -3.52778,4.409723 q 0,-1.484607 -1.39641,-2.454746 -1.23473,-0.852546 -2.79283,-0.852546 -1.5581,0 -2.79282,0.852546 -1.39641,0.970139 -1.39641,2.454746 0,1.484606 1.39641,2.454745 1.23472,0.852546 2.79282,0.852546 1.5581,0 2.79283,-0.852546 1.39641,-0.970139 1.39641,-2.454745 z"
         style="font-style:normal;font-variant:normal;font-weight:normal;font-stretch:normal;font-size:35.27777863px;line-height:1.25;font-family:Monofur;-inkscape-font-specification:Monofur;letter-spacing:0px;word-spacing:0px;fill:#550000;fill-opacity:1;stroke:none;stroke-width:0.26458332"
         id="path27"
         inkscape:connector-curvature="0" />
      <path
         d="m 197.48268,87.009182 q 0,0.690857 -0.49977,1.190625 -0.48507,0.48507 -1.17593,0.48507 -0.69085,0 -1.19062,-0.48507 -0.48507,-0.499768 -0.48507,-1.190625 0,-0.676157 0.48507,-1.146528 0.49977,-0.485069 1.19062,-0.485069 0.69086,0 1.17593,0.485069 0.49977,0.470371 0.49977,1.146528 z"
         style="font-style:normal;font-variant:normal;font-weight:normal;font-stretch:normal;font-size:35.27777863px;line-height:1.25;font-family:Monofur;-inkscape-font-specification:Monofur;letter-spacing:0px;word-spacing:0px;fill:#000000;fill-opacity:1;stroke:none;stroke-width:0.26458332"
         id="path29"
         inkscape:connector-curvature="0" />
      <path
         d="m 220.14865,91.418905 q 0,2.351852 -2.36655,3.762963 -2.01377,1.205324 -4.52732,1.205324 -1.88148,0 -3.60127,-0.720255 -1.98437,-0.837847 -2.76343,-2.322454 -0.16169,-0.30868 -0.16169,-0.573264 0,-0.440972 0.35278,-0.764351 0.35278,-0.32338 0.79375,-0.32338 0.49977,0 0.92604,0.573264 1.45521,1.925579 4.45382,1.925579 2.96922,0 4.23334,-1.631598 0.45567,-0.587963 0.45567,-1.131828 0,-0.896644 -1.02894,-1.660996 -0.82315,-0.587963 -1.88148,-0.852546 -0.88194,-0.235185 -1.99907,-0.235185 -1.89618,0 -3.39549,-0.95544 -1.73449,-1.102431 -1.73449,-2.910417 0,-1.807986 1.77859,-2.910417 1.5287,-0.94074 3.46898,-0.94074 1.20532,0 2.39595,0.426273 1.36701,0.485069 1.99907,1.322916 0.29398,0.382176 0.29398,0.720255 0,0.440972 -0.35277,0.779051 -0.33808,0.338079 -0.79375,0.338079 -0.19109,0 -1.22003,-0.690857 -1.01423,-0.690856 -2.32245,-0.690856 -1.99907,0 -2.80752,1.087731 -0.23519,0.308681 -0.23519,0.558565 0,1.058333 1.83739,1.514005 0.61736,0.146991 1.4699,0.146991 2.46945,0 4.43912,1.220023 2.29306,1.42581 2.29306,3.733565 z"
         style="font-style:normal;font-variant:normal;font-weight:normal;font-stretch:normal;font-size:35.27777863px;line-height:1.25;font-family:Monofur;-inkscape-font-specification:Monofur;letter-spacing:0px;word-spacing:0px;fill:#000000;fill-opacity:1;stroke:none;stroke-width:0.26458332"
         id="path31"
         inkscape:connector-curvature="0" />
      <path
         d="m 238.80177,88.670178 q 0,3.057407 -1.94027,5.335764 -2.02848,2.38125 -5.04179,2.38125 -2.77812,0 -4.77719,-2.087269 v 7.599417 q 0,1.10244 -1.10244,1.10244 -1.10243,0 -1.10243,-1.10244 V 82.055594 q 0,-1.10243 1.10243,-1.10243 0.80845,0 1.01424,0.705555 0.0882,0.308681 0.0882,1.381713 1.99907,-2.087268 4.77719,-2.087268 3.01331,0 5.04179,2.38125 1.94027,2.278356 1.94027,5.335764 z m -2.20486,0 q 0,-2.146065 -1.29351,-3.762963 -1.39642,-1.74919 -3.48369,-1.74919 -2.08726,0 -3.48368,1.74919 -1.29351,1.616898 -1.29351,3.762963 0,2.146065 1.29351,3.762963 1.39642,1.74919 3.48368,1.74919 2.08727,0 3.48369,-1.74919 1.29351,-1.616898 1.29351,-3.762963 z"
         style="font-style:normal;font-variant:normal;font-weight:normal;font-stretch:normal;font-size:35.27777863px;line-height:1.25;font-family:Monofur;-inkscape-font-specification:Monofur;letter-spacing:0px;word-spacing:0px;fill:#000000;fill-opacity:1;stroke:none;stroke-width:0.26458332"
         id="path33"
         inkscape:connector-curvature="0" />
      <path
         d="m 250.39934,76.014275 q 0,0.690856 -0.49976,1.161226 -0.48507,0.470371 -1.17593,0.470371 -0.69086,0 -1.19063,-0.470371 -0.48506,-0.47037 -0.48506,-1.161226 0,-0.690857 0.48506,-1.175926 0.49977,-0.499769 1.19063,-0.499769 0.69086,0 1.17593,0.499769 0.49976,0.485069 0.49976,1.175926 z m 3.83646,19.270486 q 0,1.102431 -1.10243,1.102431 h -4.40972 q -1.10243,0 -1.10243,-1.102431 V 83.158025 h -3.30729 q -1.10243,0 -1.10243,-1.102431 0,-1.10243 1.10243,-1.10243 h 4.42442 q 1.08773,0 1.08773,1.10243 v 12.126737 h 3.30729 q 1.10243,0 1.10243,1.10243 z"
         style="font-style:normal;font-variant:normal;font-weight:normal;font-stretch:normal;font-size:35.27777863px;line-height:1.25;font-family:Monofur;-inkscape-font-specification:Monofur;letter-spacing:0px;word-spacing:0px;fill:#000000;fill-opacity:1;stroke:none;stroke-width:0.26458332"
         id="path35"
         inkscape:connector-curvature="0" />
      <path
         d="m 272.60964,95.284761 q 0,1.102431 -1.10243,1.102431 -0.80845,0 -1.01423,-0.705556 -0.0882,-0.30868 -0.0882,-1.381713 -1.99907,2.087269 -4.7772,2.087269 -3.01331,0 -5.04178,-2.38125 -1.94028,-2.278357 -1.94028,-5.335764 0,-3.057408 1.94028,-5.335764 2.02847,-2.38125 5.04178,-2.38125 2.77813,0 4.7772,2.087268 v -7.599421 q 0,-1.102431 1.10243,-1.102431 1.10243,0 1.10243,1.102431 z m -2.20486,-6.614583 q 0,-2.146065 -1.29352,-3.762963 -1.39641,-1.74919 -3.48368,-1.74919 -2.08727,0 -3.48368,1.74919 -1.29352,1.616898 -1.29352,3.762963 0,2.146065 1.29352,3.762963 1.39641,1.74919 3.48368,1.74919 2.08727,0 3.48368,-1.74919 1.29352,-1.616898 1.29352,-3.762963 z"
         style="font-style:normal;font-variant:normal;font-weight:normal;font-stretch:normal;font-size:35.27777863px;line-height:1.25;font-family:Monofur;-inkscape-font-specification:Monofur;letter-spacing:0px;word-spacing:0px;fill:#000000;fill-opacity:1;stroke:none;stroke-width:0.26458332"
         id="path37"
         inkscape:connector-curvature="0" />
      <path
         d="m 291.73314,91.96277 q 0,0.279283 -0.17639,0.602662 -1.01423,1.763889 -3.04271,2.807524 -1.92557,1.014236 -4.04224,1.014236 -3.30729,0 -5.70324,-2.190162 -2.48415,-2.248959 -2.48415,-5.526852 0,-3.277894 2.48415,-5.526852 2.39595,-2.190162 5.70324,-2.190162 1.20532,0 2.51354,0.426273 1.46991,0.485069 2.92512,1.543403 1.80798,1.322916 1.80798,2.513541 0,0.587963 -0.57326,0.896644 l -11.1419,5.997222 q 1.80799,1.852084 4.46852,1.852084 2.83692,0 4.58611,-1.969676 0.20579,-0.264584 0.61736,-0.808449 0.42627,-0.543866 0.91134,-0.543866 0.44098,0 0.79375,0.323379 0.35278,0.32338 0.35278,0.779051 z m -2.77812,-6.952662 q -1.79329,-1.852083 -4.48322,-1.852083 -2.38125,0 -4.14514,1.543403 -1.83738,1.616898 -1.83738,3.96875 0,0.94074 0.32338,1.793287 z"
         style="font-style:normal;font-variant:normal;font-weight:normal;font-stretch:normal;font-size:35.27777863px;line-height:1.25;font-family:Monofur;-inkscape-font-specification:Monofur;letter-spacing:0px;word-spacing:0px;fill:#000000;fill-opacity:1;stroke:none;stroke-width:0.26458332"
         id="path39"
         inkscape:connector-curvature="0" />
      <path
         d="m 309.37203,84.51034 q 0,0.455671 -0.35277,0.79375 -0.33808,0.323379 -0.79375,0.323379 -0.41158,0 -0.82315,-0.426273 -2.02847,-2.043171 -4.29213,-2.043171 -2.27836,0 -3.89526,1.616898 -1.61689,1.616898 -1.61689,3.895255 v 6.614583 q 0,1.102431 -1.10243,1.102431 -1.10243,0 -1.10243,-1.102431 V 82.055594 q 0,-1.10243 1.10243,-1.10243 0.85254,0 1.05833,0.823148 0.0588,0.264583 0.0441,1.499305 2.26365,-2.322453 5.51215,-2.322453 1.67569,0 3.33669,0.764351 1.74919,0.793751 2.66053,2.101968 0.26458,0.382176 0.26458,0.690857 z"
         style="font-style:normal;font-variant:normal;font-weight:normal;font-stretch:normal;font-size:35.27777863px;line-height:1.25;font-family:Monofur;-inkscape-font-specification:Monofur;letter-spacing:0px;word-spacing:0px;fill:#000000;fill-opacity:1;stroke:none;stroke-width:0.26458332"
         id="path41"
         inkscape:connector-curvature="0" />
    </g>
  </g>
</svg>
