<?xml version="1.0" encoding="utf-8" standalone="no"?>
<!DOCTYPE svg PUBLIC "-//W3C//DTD SVG 1.1//EN"
  "http://www.w3.org/Graphics/SVG/1.1/DTD/svg11.dtd">
<!-- Created with matplotlib (https://matplotlib.org/) -->
<svg height="345.6pt" version="1.1" viewBox="0 0 460.8 345.6" width="460.8pt" xmlns="http://www.w3.org/2000/svg" xmlns:xlink="http://www.w3.org/1999/xlink">
 <defs>
  <style type="text/css">
*{stroke-linecap:butt;stroke-linejoin:round;}
  </style>
 </defs>
 <g id="figure_1">
  <g id="patch_1">
   <path d="M 0 345.6 
L 460.8 345.6 
L 460.8 0 
L 0 0 
z
" style="fill:#ffffff;"/>
  </g>
  <g id="axes_1">
   <g id="patch_2">
    <path d="M 57.6 307.584 
L 414.72 307.584 
L 414.72 41.472 
L 57.6 41.472 
z
" style="fill:#ffffff;"/>
   </g>
   <g id="matplotlib.axis_1">
    <g id="xtick_1">
     <g id="line2d_1">
      <defs>
       <path d="M 0 0 
L 0 3.5 
" id="mcdf8bc0614" style="stroke:#000000;stroke-width:0.8;"/>
      </defs>
      <g>
       <use style="stroke:#000000;stroke-width:0.8;" x="73.832727" xlink:href="#mcdf8bc0614" y="307.584"/>
      </g>
     </g>
     <g id="text_1">
      <!-- 0 -->
      <defs>
       <path d="M 31.78125 66.40625 
Q 24.171875 66.40625 20.328125 58.90625 
Q 16.5 51.421875 16.5 36.375 
Q 16.5 21.390625 20.328125 13.890625 
Q 24.171875 6.390625 31.78125 6.390625 
Q 39.453125 6.390625 43.28125 13.890625 
Q 47.125 21.390625 47.125 36.375 
Q 47.125 51.421875 43.28125 58.90625 
Q 39.453125 66.40625 31.78125 66.40625 
z
M 31.78125 74.21875 
Q 44.046875 74.21875 50.515625 64.515625 
Q 56.984375 54.828125 56.984375 36.375 
Q 56.984375 17.96875 50.515625 8.265625 
Q 44.046875 -1.421875 31.78125 -1.421875 
Q 19.53125 -1.421875 13.0625 8.265625 
Q 6.59375 17.96875 6.59375 36.375 
Q 6.59375 54.828125 13.0625 64.515625 
Q 19.53125 74.21875 31.78125 74.21875 
z
" id="DejaVuSans-48"/>
      </defs>
      <g transform="translate(70.651477 322.182437)scale(0.1 -0.1)">
       <use xlink:href="#DejaVuSans-48"/>
      </g>
     </g>
    </g>
    <g id="xtick_2">
     <g id="line2d_2">
      <g>
       <use style="stroke:#000000;stroke-width:0.8;" x="138.77013" xlink:href="#mcdf8bc0614" y="307.584"/>
      </g>
     </g>
     <g id="text_2">
      <!-- 2000 -->
      <defs>
       <path d="M 19.1875 8.296875 
L 53.609375 8.296875 
L 53.609375 0 
L 7.328125 0 
L 7.328125 8.296875 
Q 12.9375 14.109375 22.625 23.890625 
Q 32.328125 33.6875 34.8125 36.53125 
Q 39.546875 41.84375 41.421875 45.53125 
Q 43.3125 49.21875 43.3125 52.78125 
Q 43.3125 58.59375 39.234375 62.25 
Q 35.15625 65.921875 28.609375 65.921875 
Q 23.96875 65.921875 18.8125 64.3125 
Q 13.671875 62.703125 7.8125 59.421875 
L 7.8125 69.390625 
Q 13.765625 71.78125 18.9375 73 
Q 24.125 74.21875 28.421875 74.21875 
Q 39.75 74.21875 46.484375 68.546875 
Q 53.21875 62.890625 53.21875 53.421875 
Q 53.21875 48.921875 51.53125 44.890625 
Q 49.859375 40.875 45.40625 35.40625 
Q 44.1875 33.984375 37.640625 27.21875 
Q 31.109375 20.453125 19.1875 8.296875 
z
" id="DejaVuSans-50"/>
      </defs>
      <g transform="translate(126.04513 322.182437)scale(0.1 -0.1)">
       <use xlink:href="#DejaVuSans-50"/>
       <use x="63.623047" xlink:href="#DejaVuSans-48"/>
       <use x="127.246094" xlink:href="#DejaVuSans-48"/>
       <use x="190.869141" xlink:href="#DejaVuSans-48"/>
      </g>
     </g>
    </g>
    <g id="xtick_3">
     <g id="line2d_3">
      <g>
       <use style="stroke:#000000;stroke-width:0.8;" x="203.707533" xlink:href="#mcdf8bc0614" y="307.584"/>
      </g>
     </g>
     <g id="text_3">
      <!-- 4000 -->
      <defs>
       <path d="M 37.796875 64.3125 
L 12.890625 25.390625 
L 37.796875 25.390625 
z
M 35.203125 72.90625 
L 47.609375 72.90625 
L 47.609375 25.390625 
L 58.015625 25.390625 
L 58.015625 17.1875 
L 47.609375 17.1875 
L 47.609375 0 
L 37.796875 0 
L 37.796875 17.1875 
L 4.890625 17.1875 
L 4.890625 26.703125 
z
" id="DejaVuSans-52"/>
      </defs>
      <g transform="translate(190.982533 322.182437)scale(0.1 -0.1)">
       <use xlink:href="#DejaVuSans-52"/>
       <use x="63.623047" xlink:href="#DejaVuSans-48"/>
       <use x="127.246094" xlink:href="#DejaVuSans-48"/>
       <use x="190.869141" xlink:href="#DejaVuSans-48"/>
      </g>
     </g>
    </g>
    <g id="xtick_4">
     <g id="line2d_4">
      <g>
       <use style="stroke:#000000;stroke-width:0.8;" x="268.644936" xlink:href="#mcdf8bc0614" y="307.584"/>
      </g>
     </g>
     <g id="text_4">
      <!-- 6000 -->
      <defs>
       <path d="M 33.015625 40.375 
Q 26.375 40.375 22.484375 35.828125 
Q 18.609375 31.296875 18.609375 23.390625 
Q 18.609375 15.53125 22.484375 10.953125 
Q 26.375 6.390625 33.015625 6.390625 
Q 39.65625 6.390625 43.53125 10.953125 
Q 47.40625 15.53125 47.40625 23.390625 
Q 47.40625 31.296875 43.53125 35.828125 
Q 39.65625 40.375 33.015625 40.375 
z
M 52.59375 71.296875 
L 52.59375 62.3125 
Q 48.875 64.0625 45.09375 64.984375 
Q 41.3125 65.921875 37.59375 65.921875 
Q 27.828125 65.921875 22.671875 59.328125 
Q 17.53125 52.734375 16.796875 39.40625 
Q 19.671875 43.65625 24.015625 45.921875 
Q 28.375 48.1875 33.59375 48.1875 
Q 44.578125 48.1875 50.953125 41.515625 
Q 57.328125 34.859375 57.328125 23.390625 
Q 57.328125 12.15625 50.6875 5.359375 
Q 44.046875 -1.421875 33.015625 -1.421875 
Q 20.359375 -1.421875 13.671875 8.265625 
Q 6.984375 17.96875 6.984375 36.375 
Q 6.984375 53.65625 15.1875 63.9375 
Q 23.390625 74.21875 37.203125 74.21875 
Q 40.921875 74.21875 44.703125 73.484375 
Q 48.484375 72.75 52.59375 71.296875 
z
" id="DejaVuSans-54"/>
      </defs>
      <g transform="translate(255.919936 322.182437)scale(0.1 -0.1)">
       <use xlink:href="#DejaVuSans-54"/>
       <use x="63.623047" xlink:href="#DejaVuSans-48"/>
       <use x="127.246094" xlink:href="#DejaVuSans-48"/>
       <use x="190.869141" xlink:href="#DejaVuSans-48"/>
      </g>
     </g>
    </g>
    <g id="xtick_5">
     <g id="line2d_5">
      <g>
       <use style="stroke:#000000;stroke-width:0.8;" x="333.582339" xlink:href="#mcdf8bc0614" y="307.584"/>
      </g>
     </g>
     <g id="text_5">
      <!-- 8000 -->
      <defs>
       <path d="M 31.78125 34.625 
Q 24.75 34.625 20.71875 30.859375 
Q 16.703125 27.09375 16.703125 20.515625 
Q 16.703125 13.921875 20.71875 10.15625 
Q 24.75 6.390625 31.78125 6.390625 
Q 38.8125 6.390625 42.859375 10.171875 
Q 46.921875 13.96875 46.921875 20.515625 
Q 46.921875 27.09375 42.890625 30.859375 
Q 38.875 34.625 31.78125 34.625 
z
M 21.921875 38.8125 
Q 15.578125 40.375 12.03125 44.71875 
Q 8.5 49.078125 8.5 55.328125 
Q 8.5 64.0625 14.71875 69.140625 
Q 20.953125 74.21875 31.78125 74.21875 
Q 42.671875 74.21875 48.875 69.140625 
Q 55.078125 64.0625 55.078125 55.328125 
Q 55.078125 49.078125 51.53125 44.71875 
Q 48 40.375 41.703125 38.8125 
Q 48.828125 37.15625 52.796875 32.3125 
Q 56.78125 27.484375 56.78125 20.515625 
Q 56.78125 9.90625 50.3125 4.234375 
Q 43.84375 -1.421875 31.78125 -1.421875 
Q 19.734375 -1.421875 13.25 4.234375 
Q 6.78125 9.90625 6.78125 20.515625 
Q 6.78125 27.484375 10.78125 32.3125 
Q 14.796875 37.15625 21.921875 38.8125 
z
M 18.3125 54.390625 
Q 18.3125 48.734375 21.84375 45.5625 
Q 25.390625 42.390625 31.78125 42.390625 
Q 38.140625 42.390625 41.71875 45.5625 
Q 45.3125 48.734375 45.3125 54.390625 
Q 45.3125 60.0625 41.71875 63.234375 
Q 38.140625 66.40625 31.78125 66.40625 
Q 25.390625 66.40625 21.84375 63.234375 
Q 18.3125 60.0625 18.3125 54.390625 
z
" id="DejaVuSans-56"/>
      </defs>
      <g transform="translate(320.857339 322.182437)scale(0.1 -0.1)">
       <use xlink:href="#DejaVuSans-56"/>
       <use x="63.623047" xlink:href="#DejaVuSans-48"/>
       <use x="127.246094" xlink:href="#DejaVuSans-48"/>
       <use x="190.869141" xlink:href="#DejaVuSans-48"/>
      </g>
     </g>
    </g>
    <g id="xtick_6">
     <g id="line2d_6">
      <g>
       <use style="stroke:#000000;stroke-width:0.8;" x="398.519741" xlink:href="#mcdf8bc0614" y="307.584"/>
      </g>
     </g>
     <g id="text_6">
      <!-- 10000 -->
      <defs>
       <path d="M 12.40625 8.296875 
L 28.515625 8.296875 
L 28.515625 63.921875 
L 10.984375 60.40625 
L 10.984375 69.390625 
L 28.421875 72.90625 
L 38.28125 72.90625 
L 38.28125 8.296875 
L 54.390625 8.296875 
L 54.390625 0 
L 12.40625 0 
z
" id="DejaVuSans-49"/>
      </defs>
      <g transform="translate(382.613491 322.182437)scale(0.1 -0.1)">
       <use xlink:href="#DejaVuSans-49"/>
       <use x="63.623047" xlink:href="#DejaVuSans-48"/>
       <use x="127.246094" xlink:href="#DejaVuSans-48"/>
       <use x="190.869141" xlink:href="#DejaVuSans-48"/>
       <use x="254.492188" xlink:href="#DejaVuSans-48"/>
      </g>
     </g>
    </g>
    <g id="text_7">
     <!-- Guesses -->
     <defs>
      <path d="M 59.515625 10.40625 
L 59.515625 29.984375 
L 43.40625 29.984375 
L 43.40625 38.09375 
L 69.28125 38.09375 
L 69.28125 6.78125 
Q 63.578125 2.734375 56.6875 0.65625 
Q 49.8125 -1.421875 42 -1.421875 
Q 24.90625 -1.421875 15.25 8.5625 
Q 5.609375 18.5625 5.609375 36.375 
Q 5.609375 54.25 15.25 64.234375 
Q 24.90625 74.21875 42 74.21875 
Q 49.125 74.21875 55.546875 72.453125 
Q 61.96875 70.703125 67.390625 67.28125 
L 67.390625 56.78125 
Q 61.921875 61.421875 55.765625 63.765625 
Q 49.609375 66.109375 42.828125 66.109375 
Q 29.4375 66.109375 22.71875 58.640625 
Q 16.015625 51.171875 16.015625 36.375 
Q 16.015625 21.625 22.71875 14.15625 
Q 29.4375 6.6875 42.828125 6.6875 
Q 48.046875 6.6875 52.140625 7.59375 
Q 56.25 8.5 59.515625 10.40625 
z
" id="DejaVuSans-71"/>
      <path d="M 8.5 21.578125 
L 8.5 54.6875 
L 17.484375 54.6875 
L 17.484375 21.921875 
Q 17.484375 14.15625 20.5 10.265625 
Q 23.53125 6.390625 29.59375 6.390625 
Q 36.859375 6.390625 41.078125 11.03125 
Q 45.3125 15.671875 45.3125 23.6875 
L 45.3125 54.6875 
L 54.296875 54.6875 
L 54.296875 0 
L 45.3125 0 
L 45.3125 8.40625 
Q 42.046875 3.421875 37.71875 1 
Q 33.40625 -1.421875 27.6875 -1.421875 
Q 18.265625 -1.421875 13.375 4.4375 
Q 8.5 10.296875 8.5 21.578125 
z
M 31.109375 56 
z
" id="DejaVuSans-117"/>
      <path d="M 56.203125 29.59375 
L 56.203125 25.203125 
L 14.890625 25.203125 
Q 15.484375 15.921875 20.484375 11.0625 
Q 25.484375 6.203125 34.421875 6.203125 
Q 39.59375 6.203125 44.453125 7.46875 
Q 49.3125 8.734375 54.109375 11.28125 
L 54.109375 2.78125 
Q 49.265625 0.734375 44.1875 -0.34375 
Q 39.109375 -1.421875 33.890625 -1.421875 
Q 20.796875 -1.421875 13.15625 6.1875 
Q 5.515625 13.8125 5.515625 26.8125 
Q 5.515625 40.234375 12.765625 48.109375 
Q 20.015625 56 32.328125 56 
Q 43.359375 56 49.78125 48.890625 
Q 56.203125 41.796875 56.203125 29.59375 
z
M 47.21875 32.234375 
Q 47.125 39.59375 43.09375 43.984375 
Q 39.0625 48.390625 32.421875 48.390625 
Q 24.90625 48.390625 20.390625 44.140625 
Q 15.875 39.890625 15.1875 32.171875 
z
" id="DejaVuSans-101"/>
      <path d="M 44.28125 53.078125 
L 44.28125 44.578125 
Q 40.484375 46.53125 36.375 47.5 
Q 32.28125 48.484375 27.875 48.484375 
Q 21.1875 48.484375 17.84375 46.4375 
Q 14.5 44.390625 14.5 40.28125 
Q 14.5 37.15625 16.890625 35.375 
Q 19.28125 33.59375 26.515625 31.984375 
L 29.59375 31.296875 
Q 39.15625 29.25 43.1875 25.515625 
Q 47.21875 21.78125 47.21875 15.09375 
Q 47.21875 7.46875 41.1875 3.015625 
Q 35.15625 -1.421875 24.609375 -1.421875 
Q 20.21875 -1.421875 15.453125 -0.5625 
Q 10.6875 0.296875 5.421875 2 
L 5.421875 11.28125 
Q 10.40625 8.6875 15.234375 7.390625 
Q 20.0625 6.109375 24.8125 6.109375 
Q 31.15625 6.109375 34.5625 8.28125 
Q 37.984375 10.453125 37.984375 14.40625 
Q 37.984375 18.0625 35.515625 20.015625 
Q 33.0625 21.96875 24.703125 23.78125 
L 21.578125 24.515625 
Q 13.234375 26.265625 9.515625 29.90625 
Q 5.8125 33.546875 5.8125 39.890625 
Q 5.8125 47.609375 11.28125 51.796875 
Q 16.75 56 26.8125 56 
Q 31.78125 56 36.171875 55.265625 
Q 40.578125 54.546875 44.28125 53.078125 
z
" id="DejaVuSans-115"/>
     </defs>
     <g transform="translate(215.149844 335.860562)scale(0.1 -0.1)">
      <use xlink:href="#DejaVuSans-71"/>
      <use x="77.490234" xlink:href="#DejaVuSans-117"/>
      <use x="140.869141" xlink:href="#DejaVuSans-101"/>
      <use x="202.392578" xlink:href="#DejaVuSans-115"/>
      <use x="254.492188" xlink:href="#DejaVuSans-115"/>
      <use x="306.591797" xlink:href="#DejaVuSans-101"/>
      <use x="368.115234" xlink:href="#DejaVuSans-115"/>
     </g>
    </g>
   </g>
   <g id="matplotlib.axis_2">
    <g id="ytick_1">
     <g id="line2d_7">
      <defs>
       <path d="M 0 0 
L -3.5 0 
" id="mc25e3296e6" style="stroke:#000000;stroke-width:0.8;"/>
      </defs>
      <g>
       <use style="stroke:#000000;stroke-width:0.8;" x="57.6" xlink:href="#mc25e3296e6" y="297.931698"/>
      </g>
     </g>
     <g id="text_8">
      <!-- 0.0 -->
      <defs>
       <path d="M 10.6875 12.40625 
L 21 12.40625 
L 21 0 
L 10.6875 0 
z
" id="DejaVuSans-46"/>
      </defs>
      <g transform="translate(34.696875 301.730917)scale(0.1 -0.1)">
       <use xlink:href="#DejaVuSans-48"/>
       <use x="63.623047" xlink:href="#DejaVuSans-46"/>
       <use x="95.410156" xlink:href="#DejaVuSans-48"/>
      </g>
     </g>
    </g>
    <g id="ytick_2">
     <g id="line2d_8">
      <g>
       <use style="stroke:#000000;stroke-width:0.8;" x="57.6" xlink:href="#mc25e3296e6" y="245.828564"/>
      </g>
     </g>
     <g id="text_9">
      <!-- 0.1 -->
      <g transform="translate(34.696875 249.627783)scale(0.1 -0.1)">
       <use xlink:href="#DejaVuSans-48"/>
       <use x="63.623047" xlink:href="#DejaVuSans-46"/>
       <use x="95.410156" xlink:href="#DejaVuSans-49"/>
      </g>
     </g>
    </g>
    <g id="ytick_3">
     <g id="line2d_9">
      <g>
       <use style="stroke:#000000;stroke-width:0.8;" x="57.6" xlink:href="#mc25e3296e6" y="193.72543"/>
      </g>
     </g>
     <g id="text_10">
      <!-- 0.2 -->
      <g transform="translate(34.696875 197.524649)scale(0.1 -0.1)">
       <use xlink:href="#DejaVuSans-48"/>
       <use x="63.623047" xlink:href="#DejaVuSans-46"/>
       <use x="95.410156" xlink:href="#DejaVuSans-50"/>
      </g>
     </g>
    </g>
    <g id="ytick_4">
     <g id="line2d_10">
      <g>
       <use style="stroke:#000000;stroke-width:0.8;" x="57.6" xlink:href="#mc25e3296e6" y="141.622296"/>
      </g>
     </g>
     <g id="text_11">
      <!-- 0.3 -->
      <defs>
       <path d="M 40.578125 39.3125 
Q 47.65625 37.796875 51.625 33 
Q 55.609375 28.21875 55.609375 21.1875 
Q 55.609375 10.40625 48.1875 4.484375 
Q 40.765625 -1.421875 27.09375 -1.421875 
Q 22.515625 -1.421875 17.65625 -0.515625 
Q 12.796875 0.390625 7.625 2.203125 
L 7.625 11.71875 
Q 11.71875 9.328125 16.59375 8.109375 
Q 21.484375 6.890625 26.8125 6.890625 
Q 36.078125 6.890625 40.9375 10.546875 
Q 45.796875 14.203125 45.796875 21.1875 
Q 45.796875 27.640625 41.28125 31.265625 
Q 36.765625 34.90625 28.71875 34.90625 
L 20.21875 34.90625 
L 20.21875 43.015625 
L 29.109375 43.015625 
Q 36.375 43.015625 40.234375 45.921875 
Q 44.09375 48.828125 44.09375 54.296875 
Q 44.09375 59.90625 40.109375 62.90625 
Q 36.140625 65.921875 28.71875 65.921875 
Q 24.65625 65.921875 20.015625 65.03125 
Q 15.375 64.15625 9.8125 62.3125 
L 9.8125 71.09375 
Q 15.4375 72.65625 20.34375 73.4375 
Q 25.25 74.21875 29.59375 74.21875 
Q 40.828125 74.21875 47.359375 69.109375 
Q 53.90625 64.015625 53.90625 55.328125 
Q 53.90625 49.265625 50.4375 45.09375 
Q 46.96875 40.921875 40.578125 39.3125 
z
" id="DejaVuSans-51"/>
      </defs>
      <g transform="translate(34.696875 145.421515)scale(0.1 -0.1)">
       <use xlink:href="#DejaVuSans-48"/>
       <use x="63.623047" xlink:href="#DejaVuSans-46"/>
       <use x="95.410156" xlink:href="#DejaVuSans-51"/>
      </g>
     </g>
    </g>
    <g id="ytick_5">
     <g id="line2d_11">
      <g>
       <use style="stroke:#000000;stroke-width:0.8;" x="57.6" xlink:href="#mc25e3296e6" y="89.519162"/>
      </g>
     </g>
     <g id="text_12">
      <!-- 0.4 -->
      <g transform="translate(34.696875 93.318381)scale(0.1 -0.1)">
       <use xlink:href="#DejaVuSans-48"/>
       <use x="63.623047" xlink:href="#DejaVuSans-46"/>
       <use x="95.410156" xlink:href="#DejaVuSans-52"/>
      </g>
     </g>
    </g>
    <g id="text_13">
     <!-- Guess success probability -->
     <defs>
      <path id="DejaVuSans-32"/>
      <path d="M 48.78125 52.59375 
L 48.78125 44.1875 
Q 44.96875 46.296875 41.140625 47.34375 
Q 37.3125 48.390625 33.40625 48.390625 
Q 24.65625 48.390625 19.8125 42.84375 
Q 14.984375 37.3125 14.984375 27.296875 
Q 14.984375 17.28125 19.8125 11.734375 
Q 24.65625 6.203125 33.40625 6.203125 
Q 37.3125 6.203125 41.140625 7.25 
Q 44.96875 8.296875 48.78125 10.40625 
L 48.78125 2.09375 
Q 45.015625 0.34375 40.984375 -0.53125 
Q 36.96875 -1.421875 32.421875 -1.421875 
Q 20.0625 -1.421875 12.78125 6.34375 
Q 5.515625 14.109375 5.515625 27.296875 
Q 5.515625 40.671875 12.859375 48.328125 
Q 20.21875 56 33.015625 56 
Q 37.15625 56 41.109375 55.140625 
Q 45.0625 54.296875 48.78125 52.59375 
z
" id="DejaVuSans-99"/>
      <path d="M 18.109375 8.203125 
L 18.109375 -20.796875 
L 9.078125 -20.796875 
L 9.078125 54.6875 
L 18.109375 54.6875 
L 18.109375 46.390625 
Q 20.953125 51.265625 25.265625 53.625 
Q 29.59375 56 35.59375 56 
Q 45.5625 56 51.78125 48.09375 
Q 58.015625 40.1875 58.015625 27.296875 
Q 58.015625 14.40625 51.78125 6.484375 
Q 45.5625 -1.421875 35.59375 -1.421875 
Q 29.59375 -1.421875 25.265625 0.953125 
Q 20.953125 3.328125 18.109375 8.203125 
z
M 48.6875 27.296875 
Q 48.6875 37.203125 44.609375 42.84375 
Q 40.53125 48.484375 33.40625 48.484375 
Q 26.265625 48.484375 22.1875 42.84375 
Q 18.109375 37.203125 18.109375 27.296875 
Q 18.109375 17.390625 22.1875 11.75 
Q 26.265625 6.109375 33.40625 6.109375 
Q 40.53125 6.109375 44.609375 11.75 
Q 48.6875 17.390625 48.6875 27.296875 
z
" id="DejaVuSans-112"/>
      <path d="M 41.109375 46.296875 
Q 39.59375 47.171875 37.8125 47.578125 
Q 36.03125 48 33.890625 48 
Q 26.265625 48 22.1875 43.046875 
Q 18.109375 38.09375 18.109375 28.8125 
L 18.109375 0 
L 9.078125 0 
L 9.078125 54.6875 
L 18.109375 54.6875 
L 18.109375 46.1875 
Q 20.953125 51.171875 25.484375 53.578125 
Q 30.03125 56 36.53125 56 
Q 37.453125 56 38.578125 55.875 
Q 39.703125 55.765625 41.0625 55.515625 
z
" id="DejaVuSans-114"/>
      <path d="M 30.609375 48.390625 
Q 23.390625 48.390625 19.1875 42.75 
Q 14.984375 37.109375 14.984375 27.296875 
Q 14.984375 17.484375 19.15625 11.84375 
Q 23.34375 6.203125 30.609375 6.203125 
Q 37.796875 6.203125 41.984375 11.859375 
Q 46.1875 17.53125 46.1875 27.296875 
Q 46.1875 37.015625 41.984375 42.703125 
Q 37.796875 48.390625 30.609375 48.390625 
z
M 30.609375 56 
Q 42.328125 56 49.015625 48.375 
Q 55.71875 40.765625 55.71875 27.296875 
Q 55.71875 13.875 49.015625 6.21875 
Q 42.328125 -1.421875 30.609375 -1.421875 
Q 18.84375 -1.421875 12.171875 6.21875 
Q 5.515625 13.875 5.515625 27.296875 
Q 5.515625 40.765625 12.171875 48.375 
Q 18.84375 56 30.609375 56 
z
" id="DejaVuSans-111"/>
      <path d="M 48.6875 27.296875 
Q 48.6875 37.203125 44.609375 42.84375 
Q 40.53125 48.484375 33.40625 48.484375 
Q 26.265625 48.484375 22.1875 42.84375 
Q 18.109375 37.203125 18.109375 27.296875 
Q 18.109375 17.390625 22.1875 11.75 
Q 26.265625 6.109375 33.40625 6.109375 
Q 40.53125 6.109375 44.609375 11.75 
Q 48.6875 17.390625 48.6875 27.296875 
z
M 18.109375 46.390625 
Q 20.953125 51.265625 25.265625 53.625 
Q 29.59375 56 35.59375 56 
Q 45.5625 56 51.78125 48.09375 
Q 58.015625 40.1875 58.015625 27.296875 
Q 58.015625 14.40625 51.78125 6.484375 
Q 45.5625 -1.421875 35.59375 -1.421875 
Q 29.59375 -1.421875 25.265625 0.953125 
Q 20.953125 3.328125 18.109375 8.203125 
L 18.109375 0 
L 9.078125 0 
L 9.078125 75.984375 
L 18.109375 75.984375 
z
" id="DejaVuSans-98"/>
      <path d="M 34.28125 27.484375 
Q 23.390625 27.484375 19.1875 25 
Q 14.984375 22.515625 14.984375 16.5 
Q 14.984375 11.71875 18.140625 8.90625 
Q 21.296875 6.109375 26.703125 6.109375 
Q 34.1875 6.109375 38.703125 11.40625 
Q 43.21875 16.703125 43.21875 25.484375 
L 43.21875 27.484375 
z
M 52.203125 31.203125 
L 52.203125 0 
L 43.21875 0 
L 43.21875 8.296875 
Q 40.140625 3.328125 35.546875 0.953125 
Q 30.953125 -1.421875 24.3125 -1.421875 
Q 15.921875 -1.421875 10.953125 3.296875 
Q 6 8.015625 6 15.921875 
Q 6 25.140625 12.171875 29.828125 
Q 18.359375 34.515625 30.609375 34.515625 
L 43.21875 34.515625 
L 43.21875 35.40625 
Q 43.21875 41.609375 39.140625 45 
Q 35.0625 48.390625 27.6875 48.390625 
Q 23 48.390625 18.546875 47.265625 
Q 14.109375 46.140625 10.015625 43.890625 
L 10.015625 52.203125 
Q 14.9375 54.109375 19.578125 55.046875 
Q 24.21875 56 28.609375 56 
Q 40.484375 56 46.34375 49.84375 
Q 52.203125 43.703125 52.203125 31.203125 
z
" id="DejaVuSans-97"/>
      <path d="M 9.421875 54.6875 
L 18.40625 54.6875 
L 18.40625 0 
L 9.421875 0 
z
M 9.421875 75.984375 
L 18.40625 75.984375 
L 18.40625 64.59375 
L 9.421875 64.59375 
z
" id="DejaVuSans-105"/>
      <path d="M 9.421875 75.984375 
L 18.40625 75.984375 
L 18.40625 0 
L 9.421875 0 
z
" id="DejaVuSans-108"/>
      <path d="M 18.3125 70.21875 
L 18.3125 54.6875 
L 36.8125 54.6875 
L 36.8125 47.703125 
L 18.3125 47.703125 
L 18.3125 18.015625 
Q 18.3125 11.328125 20.140625 9.421875 
Q 21.96875 7.515625 27.59375 7.515625 
L 36.8125 7.515625 
L 36.8125 0 
L 27.59375 0 
Q 17.1875 0 13.234375 3.875 
Q 9.28125 7.765625 9.28125 18.015625 
L 9.28125 47.703125 
L 2.6875 47.703125 
L 2.6875 54.6875 
L 9.28125 54.6875 
L 9.28125 70.21875 
z
" id="DejaVuSans-116"/>
      <path d="M 32.171875 -5.078125 
Q 28.375 -14.84375 24.75 -17.8125 
Q 21.140625 -20.796875 15.09375 -20.796875 
L 7.90625 -20.796875 
L 7.90625 -13.28125 
L 13.1875 -13.28125 
Q 16.890625 -13.28125 18.9375 -11.515625 
Q 21 -9.765625 23.484375 -3.21875 
L 25.09375 0.875 
L 2.984375 54.6875 
L 12.5 54.6875 
L 29.59375 11.921875 
L 46.6875 54.6875 
L 56.203125 54.6875 
z
" id="DejaVuSans-121"/>
     </defs>
     <g transform="translate(28.617187 239.379562)rotate(-90)scale(0.1 -0.1)">
      <use xlink:href="#DejaVuSans-71"/>
      <use x="77.490234" xlink:href="#DejaVuSans-117"/>
      <use x="140.869141" xlink:href="#DejaVuSans-101"/>
      <use x="202.392578" xlink:href="#DejaVuSans-115"/>
      <use x="254.492188" xlink:href="#DejaVuSans-115"/>
      <use x="306.591797" xlink:href="#DejaVuSans-32"/>
      <use x="338.378906" xlink:href="#DejaVuSans-115"/>
      <use x="390.478516" xlink:href="#DejaVuSans-117"/>
      <use x="453.857422" xlink:href="#DejaVuSans-99"/>
      <use x="508.837891" xlink:href="#DejaVuSans-99"/>
      <use x="563.818359" xlink:href="#DejaVuSans-101"/>
      <use x="625.341797" xlink:href="#DejaVuSans-115"/>
      <use x="677.441406" xlink:href="#DejaVuSans-115"/>
      <use x="729.541016" xlink:href="#DejaVuSans-32"/>
      <use x="761.328125" xlink:href="#DejaVuSans-112"/>
      <use x="824.804688" xlink:href="#DejaVuSans-114"/>
      <use x="865.886719" xlink:href="#DejaVuSans-111"/>
      <use x="927.068359" xlink:href="#DejaVuSans-98"/>
      <use x="990.544922" xlink:href="#DejaVuSans-97"/>
      <use x="1051.824219" xlink:href="#DejaVuSans-98"/>
      <use x="1115.300781" xlink:href="#DejaVuSans-105"/>
      <use x="1143.083984" xlink:href="#DejaVuSans-108"/>
      <use x="1170.867188" xlink:href="#DejaVuSans-105"/>
      <use x="1198.650391" xlink:href="#DejaVuSans-116"/>
      <use x="1237.859375" xlink:href="#DejaVuSans-121"/>
     </g>
    </g>
   </g>
   <g id="line2d_12">
    <path clip-path="url(#p9b32bb9427)" d="M 73.832727 289.595197 
L 73.995071 277.611476 
L 74.124946 276.569413 
L 74.25482 273.443225 
L 74.482101 267.71188 
L 74.579507 267.71188 
L 74.741851 265.627755 
L 74.77432 265.627755 
L 74.936663 263.54363 
L 75.488631 256.249191 
L 75.5211 256.249191 
L 75.683443 253.644034 
L 75.748381 253.644034 
L 76.00813 251.038878 
L 76.073068 251.038878 
L 76.202942 249.475784 
L 76.332817 249.475784 
L 76.495161 248.433721 
L 76.560098 248.433721 
L 76.689973 247.91269 
L 76.852317 247.91269 
L 77.209472 243.744439 
L 77.241941 243.744439 
L 77.371816 243.223407 
L 77.631565 243.223407 
L 77.793909 242.181345 
L 78.02119 242.181345 
L 78.183533 241.139282 
L 78.280939 241.139282 
L 78.443283 240.097219 
L 78.605626 240.097219 
L 78.76797 239.055157 
L 79.092657 239.055157 
L 79.384875 235.928969 
L 79.417344 235.928969 
L 79.547219 235.407937 
L 79.677094 235.407937 
L 79.806968 234.886906 
L 79.936843 234.886906 
L 80.164124 232.802781 
L 80.391405 232.802781 
L 80.553748 231.760718 
L 80.651155 231.760718 
L 80.781029 231.239687 
L 81.105716 231.239687 
L 81.300529 229.676593 
L 81.884965 229.676593 
L 82.047309 228.63453 
L 82.112246 228.63453 
L 82.242121 227.592467 
L 82.404464 227.592467 
L 82.599277 226.029373 
L 82.664214 226.029373 
L 82.826558 224.987311 
L 83.02137 224.987311 
L 83.151245 224.466279 
L 83.605806 224.466279 
L 83.735681 223.945248 
L 83.800619 223.945248 
L 83.930493 223.424217 
L 84.125306 223.424217 
L 84.287649 222.382154 
L 84.352587 222.382154 
L 84.51493 221.340091 
L 84.644805 221.340091 
L 84.807148 220.298029 
L 84.904554 220.298029 
L 85.034429 218.734935 
L 85.326648 218.734935 
L 85.52146 217.171841 
L 85.846147 217.171841 
L 86.00849 216.129778 
L 86.138365 216.129778 
L 86.300709 215.087715 
L 86.398115 215.087715 
L 86.52799 214.566684 
L 86.560458 214.566684 
L 86.690333 214.045652 
L 87.209832 214.045652 
L 87.339707 213.524621 
L 87.437113 213.524621 
L 87.566988 212.482558 
L 87.599457 212.482558 
L 87.7618 211.440496 
L 88.086487 211.440496 
L 88.216362 210.919464 
L 88.378706 210.919464 
L 88.50858 210.398433 
L 88.898205 210.398433 
L 89.02808 209.35637 
L 89.190423 209.35637 
L 89.320298 207.793276 
L 89.742391 207.793276 
L 89.872266 207.272245 
L 89.969672 207.272245 
L 90.099547 206.230182 
L 91.041139 206.230182 
L 91.171014 205.709151 
L 91.203483 205.709151 
L 91.333357 205.18812 
L 91.625576 205.18812 
L 91.75545 204.667088 
L 91.885325 204.667088 
L 92.080137 203.103994 
L 92.112606 203.103994 
L 92.27495 202.061932 
L 92.664574 202.061932 
L 92.794449 201.5409 
L 92.989261 201.5409 
L 93.119136 201.019869 
L 93.281479 201.019869 
L 93.443823 199.977806 
L 93.573698 199.977806 
L 93.736041 198.935744 
L 93.800979 198.935744 
L 93.930853 198.414712 
L 94.125666 198.414712 
L 94.25554 197.893681 
L 94.352947 197.893681 
L 94.482821 197.37265 
L 94.645165 197.37265 
L 94.807508 196.330587 
L 94.872446 196.330587 
L 95.002321 195.809556 
L 95.26207 195.809556 
L 95.489351 193.72543 
L 95.586757 193.72543 
L 95.716632 193.204399 
L 95.911444 193.204399 
L 96.041319 192.683368 
L 96.171194 192.683368 
L 96.301069 192.162336 
L 96.366006 192.162336 
L 96.495881 191.641305 
L 97.080317 191.641305 
L 97.242661 190.599242 
L 97.307598 190.599242 
L 97.437473 190.078211 
L 97.534879 190.078211 
L 97.664754 189.55718 
L 97.989441 189.55718 
L 98.119316 189.036148 
L 98.314128 189.036148 
L 98.444003 186.430991 
L 98.801159 186.430991 
L 98.931033 184.867897 
L 99.483001 184.867897 
L 99.612876 184.346866 
L 99.645345 184.346866 
L 99.77522 183.825835 
L 99.970032 183.825835 
L 100.099907 183.304803 
L 100.197313 183.304803 
L 100.327188 182.783772 
L 100.814218 182.783772 
L 100.976562 181.741709 
L 101.138905 181.741709 
L 101.26878 181.220678 
L 101.983091 181.220678 
L 102.112966 180.699647 
L 102.27531 180.699647 
L 102.437653 179.657584 
L 102.502591 179.657584 
L 102.632465 179.136553 
L 102.924684 179.136553 
L 103.054559 178.615521 
L 103.996151 178.615521 
L 104.126026 178.09449 
L 104.710462 178.09449 
L 104.840337 177.052427 
L 104.872806 177.052427 
L 105.067618 175.489333 
L 105.879336 175.489333 
L 106.171554 172.363145 
L 106.593647 172.363145 
L 106.723522 171.842114 
L 106.853397 171.842114 
L 106.983271 171.321083 
L 107.535239 171.321083 
L 107.697583 170.27902 
L 108.411894 170.27902 
L 108.541769 169.757989 
L 109.0288 169.757989 
L 109.158674 169.236957 
L 109.385955 169.236957 
L 109.51583 167.673863 
L 109.743111 167.673863 
L 109.872986 167.152832 
L 110.457422 167.152832 
L 110.587297 166.631801 
L 111.171734 166.631801 
L 111.334077 165.589738 
L 111.723702 165.589738 
L 111.853577 165.068707 
L 112.01592 165.068707 
L 112.145795 164.026644 
L 112.243201 164.026644 
L 112.438013 162.46355 
L 113.054919 162.46355 
L 113.184793 161.942519 
L 113.639355 161.942519 
L 113.76923 161.421487 
L 113.866636 161.421487 
L 113.996511 160.379425 
L 114.938103 160.379425 
L 115.067978 159.858393 
L 115.78229 159.858393 
L 116.00957 157.774268 
L 116.074508 157.774268 
L 116.204383 156.732205 
L 116.301789 156.732205 
L 116.431664 156.211174 
L 116.464132 156.211174 
L 116.594007 155.690142 
L 116.788819 155.690142 
L 116.918694 155.169111 
L 117.600537 155.169111 
L 117.730412 154.64808 
L 118.152505 154.64808 
L 118.28238 154.127048 
L 118.834347 154.127048 
L 118.964222 153.606017 
L 119.743471 153.606017 
L 119.873346 153.084986 
L 120.035689 153.084986 
L 120.198033 152.042923 
L 121.042219 152.042923 
L 121.172094 151.521892 
L 121.366906 151.521892 
L 121.496781 151.00086 
L 121.659124 151.00086 
L 121.788999 150.479829 
L 122.373436 150.479829 
L 122.503311 149.958798 
L 122.795529 149.958798 
L 122.925404 149.437766 
L 123.347497 149.437766 
L 123.477372 148.395704 
L 124.224152 148.395704 
L 124.354027 147.874672 
L 124.581308 147.874672 
L 124.711182 147.353641 
L 125.26315 147.353641 
L 125.393025 146.83261 
L 125.457963 146.83261 
L 125.620306 145.790547 
L 126.399555 145.790547 
L 126.52943 145.269516 
L 126.854117 145.269516 
L 127.01646 144.227453 
L 128.51002 144.227453 
L 128.639895 143.706422 
L 129.256801 143.706422 
L 129.386675 143.18539 
L 129.613956 143.18539 
L 129.743831 142.664359 
L 129.938643 142.664359 
L 130.068518 142.143328 
L 130.815298 142.143328 
L 130.945173 141.622296 
L 131.042579 141.622296 
L 131.172454 141.101265 
L 131.594547 141.101265 
L 131.789359 139.538171 
L 132.503671 139.538171 
L 132.633546 139.01714 
L 136.140165 139.01714 
L 136.27004 138.496108 
L 136.757071 138.496108 
L 136.919414 137.454046 
L 137.309039 137.454046 
L 137.438913 136.933014 
L 137.731132 136.933014 
L 137.861006 135.890952 
L 138.348037 135.890952 
L 138.477912 134.848889 
L 138.607787 134.848889 
L 138.737661 134.327858 
L 140.718252 134.327858 
L 140.848127 133.806826 
L 140.880596 133.806826 
L 141.010471 133.285795 
L 142.341687 133.285795 
L 142.471562 132.764764 
L 142.893655 132.764764 
L 143.02353 132.243732 
L 144.03006 132.243732 
L 144.192403 131.20167 
L 144.614496 131.20167 
L 144.744371 130.680638 
L 145.328808 130.680638 
L 145.491151 129.638576 
L 145.78337 129.638576 
L 145.913244 129.117544 
L 147.569148 129.117544 
L 147.699023 128.596513 
L 149.582208 128.596513 
L 149.712082 128.075482 
L 149.809489 128.075482 
L 150.004301 126.512387 
L 150.5238 126.512387 
L 150.653675 125.991356 
L 151.140705 125.991356 
L 151.27058 125.470325 
L 151.692673 125.470325 
L 151.822548 124.949293 
L 152.666734 124.949293 
L 152.796609 124.428262 
L 153.543389 124.428262 
L 153.673264 123.907231 
L 153.738201 123.907231 
L 153.868076 123.386199 
L 154.160295 123.386199 
L 154.290169 122.865168 
L 154.51745 122.865168 
L 154.647325 122.344137 
L 155.556449 122.344137 
L 155.686324 121.823105 
L 156.238291 121.823105 
L 156.400635 120.781043 
L 158.316288 120.781043 
L 158.446163 120.260011 
L 159.322818 120.260011 
L 159.452693 119.73898 
L 162.472282 119.73898 
L 162.634626 118.696917 
L 162.861907 118.696917 
L 162.991781 118.175886 
L 164.193123 118.175886 
L 164.322998 117.654855 
L 170.069958 117.654855 
L 170.199833 117.133823 
L 170.297239 117.133823 
L 170.427114 116.612792 
L 170.816738 116.612792 
L 170.946613 116.091761 
L 171.336238 116.091761 
L 171.466112 115.570729 
L 171.888206 115.570729 
L 172.01808 114.528667 
L 176.661105 114.528667 
L 176.823448 113.486604 
L 178.317008 113.486604 
L 178.446883 112.965573 
L 178.836508 112.965573 
L 178.966382 112.444541 
L 179.843037 112.444541 
L 179.972912 111.92351 
L 181.563879 111.92351 
L 181.693753 111.402479 
L 183.414595 111.402479 
L 183.544469 110.881447 
L 183.706813 110.881447 
L 183.934094 108.797322 
L 184.161375 108.797322 
L 184.291249 108.276291 
L 184.388656 108.276291 
L 184.51853 107.755259 
L 185.78481 107.755259 
L 185.947153 106.713197 
L 187.180964 106.713197 
L 187.310839 106.192165 
L 189.583648 106.192165 
L 189.713523 105.671134 
L 192.181144 105.671134 
L 192.311019 105.150103 
L 196.239732 105.150103 
L 196.369606 104.629071 
L 198.934634 104.629071 
L 199.064509 104.10804 
L 201.207443 104.10804 
L 201.337318 103.065977 
L 202.506191 103.065977 
L 202.636066 102.544946 
L 203.707533 102.544946 
L 203.837408 102.023915 
L 203.869876 102.023915 
L 203.999751 101.502883 
L 204.29197 101.502883 
L 204.421844 100.981852 
L 208.902525 100.981852 
L 209.0324 100.460821 
L 209.259681 100.460821 
L 209.389556 99.939789 
L 210.103867 99.939789 
L 210.233742 99.418758 
L 210.753241 99.418758 
L 210.883116 98.897727 
L 210.948053 98.897727 
L 211.077928 98.376695 
L 213.610487 98.376695 
L 213.740362 97.855664 
L 216.370326 97.855664 
L 216.500201 97.334632 
L 217.798949 97.334632 
L 217.928824 96.813601 
L 219.324978 96.813601 
L 219.454853 95.771538 
L 221.078288 95.771538 
L 221.240632 94.729476 
L 221.695194 94.729476 
L 221.825068 94.208444 
L 221.890006 94.208444 
L 222.019881 93.687413 
L 222.247161 93.687413 
L 222.377036 93.166382 
L 222.961473 93.166382 
L 223.091348 92.64535 
L 223.188754 92.64535 
L 223.383566 91.082256 
L 224.909595 91.082256 
L 225.03947 90.561225 
L 225.104407 90.561225 
L 225.234282 89.519162 
L 231.04618 89.519162 
L 231.176054 88.998131 
L 232.572208 88.998131 
L 232.702083 88.4771 
L 236.53339 88.4771 
L 236.663265 87.956068 
L 236.760671 87.956068 
L 236.890546 87.435037 
L 237.312639 87.435037 
L 237.442514 86.914006 
L 238.189294 86.914006 
L 238.319169 86.392974 
L 239.260761 86.392974 
L 239.390636 84.82988 
L 239.715323 84.82988 
L 239.845198 84.308849 
L 241.825788 84.308849 
L 241.955663 83.787818 
L 242.182944 83.787818 
L 242.312819 83.266786 
L 243.54663 83.266786 
L 243.676504 82.745755 
L 244.260941 82.745755 
L 244.390816 82.224724 
L 246.598688 82.224724 
L 246.761031 81.182661 
L 248.28706 81.182661 
L 248.416935 80.66163 
L 249.845558 80.66163 
L 249.975432 80.140598 
L 254.098958 80.140598 
L 254.261301 79.098536 
L 264.164255 79.098536 
L 264.29413 78.577504 
L 267.638406 78.577504 
L 267.768281 78.056473 
L 269.326778 78.056473 
L 269.456653 77.535442 
L 272.963273 77.535442 
L 273.093148 77.01441 
L 277.736172 77.01441 
L 277.866047 76.493379 
L 280.593418 76.493379 
L 280.723293 75.972348 
L 281.502542 75.972348 
L 281.632416 75.451316 
L 284.262381 75.451316 
L 284.392256 74.930285 
L 284.684474 74.930285 
L 284.814349 74.409254 
L 288.937874 74.409254 
L 289.067749 73.888222 
L 301.957823 73.888222 
L 302.087698 73.367191 
L 303.061759 73.367191 
L 303.191634 72.84616 
L 305.983942 72.84616 
L 306.113817 72.325128 
L 307.80219 72.325128 
L 307.932064 71.804097 
L 308.516501 71.804097 
L 308.646376 71.283066 
L 310.04253 71.283066 
L 310.172405 70.762034 
L 310.951654 70.762034 
L 311.081529 70.241003 
L 311.503622 70.241003 
L 311.633496 69.719972 
L 311.958183 69.719972 
L 312.088058 69.19894 
L 312.412745 69.19894 
L 312.54262 68.156877 
L 313.386806 68.156877 
L 313.516681 67.635846 
L 313.679025 67.635846 
L 313.808899 67.114815 
L 316.79602 67.114815 
L 316.925895 66.593783 
L 317.477863 66.593783 
L 317.607738 66.072752 
L 318.386986 66.072752 
L 318.516861 65.551721 
L 320.30264 65.551721 
L 320.432515 65.030689 
L 329.069189 65.030689 
L 329.199064 64.509658 
L 330.984842 64.509658 
L 331.114717 63.988627 
L 345.660696 63.988627 
L 345.79057 63.467595 
L 346.959444 63.467595 
L 347.089318 62.946564 
L 350.531001 62.946564 
L 350.660876 62.425533 
L 353.258372 62.425533 
L 353.388246 61.904501 
L 354.329839 61.904501 
L 354.459714 61.38347 
L 354.589588 61.38347 
L 354.719463 60.862439 
L 359.29755 60.862439 
L 359.427425 60.341407 
L 361.343078 60.341407 
L 361.505422 59.299345 
L 361.959984 59.299345 
L 362.122327 58.257282 
L 378.226803 58.257282 
L 378.356678 57.736251 
L 378.454084 57.736251 
L 378.583959 57.215219 
L 379.006052 57.215219 
L 379.135927 56.694188 
L 379.493082 56.694188 
L 379.622957 56.173157 
L 385.56473 56.173157 
L 385.694604 55.652125 
L 387.253102 55.652125 
L 387.382977 55.131094 
L 388.032351 55.131094 
L 388.162226 54.610063 
L 395.954714 54.610063 
L 396.084589 54.089031 
L 397.902836 54.089031 
L 398.032711 53.568 
L 398.487273 53.568 
L 398.487273 53.568 
" style="fill:none;stroke:#1f77b4;stroke-linecap:square;stroke-width:1.5;"/>
   </g>
   <g id="line2d_13">
    <path clip-path="url(#p9b32bb9427)" d="M 73.832727 295.488 
L 74.027539 291.298803 
L 74.092477 291.298803 
L 74.449633 289.902404 
L 74.51457 289.902404 
L 74.644445 289.727855 
L 74.871726 289.727855 
L 75.034069 288.680555 
L 75.196413 288.680555 
L 75.326288 288.506006 
L 75.683443 288.506006 
L 75.813318 287.982356 
L 76.300349 287.982356 
L 76.430223 287.807806 
L 76.495161 287.807806 
L 76.625036 287.633256 
L 76.722442 287.633256 
L 76.884785 287.284156 
L 77.01466 287.284156 
L 77.144535 287.109607 
L 77.177004 287.109607 
L 77.339347 286.760507 
L 77.599097 286.760507 
L 77.793909 286.236857 
L 77.891315 286.236857 
L 78.02119 286.062307 
L 78.151065 286.062307 
L 78.280939 285.887758 
L 78.443283 285.887758 
L 78.573158 285.713208 
L 79.125126 285.713208 
L 79.287469 285.364108 
L 80.099187 285.364108 
L 80.229061 285.189558 
L 80.553748 285.189558 
L 80.683623 284.840458 
L 81.657684 284.840458 
L 81.787559 284.665909 
L 82.696683 284.665909 
L 82.826558 284.491359 
L 83.02137 284.491359 
L 83.151245 284.316809 
L 83.573338 284.316809 
L 83.703213 283.967709 
L 83.833087 283.793159 
L 84.25518 283.793159 
L 84.417524 283.444059 
L 85.229241 283.444059 
L 85.359116 283.26951 
L 85.424054 283.26951 
L 85.553928 283.09496 
L 86.105896 283.09496 
L 86.26824 282.74586 
L 87.112426 282.74586 
L 87.242301 282.57131 
L 87.404644 282.57131 
L 87.534519 282.39676 
L 88.02155 282.39676 
L 88.151425 282.22221 
L 89.287829 282.22221 
L 89.417704 281.873111 
L 89.450173 281.873111 
L 89.580047 281.698561 
L 89.839797 281.698561 
L 89.969672 281.524011 
L 90.489171 281.524011 
L 90.846327 280.127612 
L 91.398295 280.127612 
L 91.52817 279.953062 
L 92.404824 279.953062 
L 92.534699 279.778512 
L 93.249011 279.778512 
L 93.378886 279.603963 
L 93.671104 279.603963 
L 93.800979 279.429413 
L 93.833447 279.429413 
L 94.060728 278.731213 
L 94.417884 278.731213 
L 94.547759 278.556663 
L 94.77504 278.556663 
L 94.904914 277.334814 
L 94.969852 277.334814 
L 95.099727 277.160264 
L 95.359476 277.160264 
L 95.489351 275.763866 
L 95.586757 275.763866 
L 95.716632 275.589316 
L 96.041319 275.589316 
L 96.171194 275.414766 
L 96.203663 275.414766 
L 96.333537 275.240216 
L 96.788099 275.240216 
L 96.917974 275.065666 
L 97.177724 275.065666 
L 97.307598 274.716566 
L 97.632285 274.716566 
L 97.76216 274.542017 
L 98.314128 274.542017 
L 98.444003 274.367467 
L 99.190783 274.367467 
L 99.320658 274.192917 
L 101.041499 274.192917 
L 101.171374 272.796518 
L 101.236311 272.796518 
L 101.366186 272.621968 
L 102.76234 272.621968 
L 102.892215 272.447418 
L 103.444183 272.447418 
L 103.606526 272.098318 
L 107.113146 272.098318 
L 107.27549 271.749219 
L 107.307958 271.749219 
L 107.437833 271.574669 
L 107.470302 271.574669 
L 107.600177 271.225569 
L 107.859926 271.225569 
L 107.989801 271.051019 
L 108.996331 271.051019 
L 109.126206 270.876469 
L 110.035329 270.876469 
L 110.165204 270.70192 
L 111.788639 270.70192 
L 111.918514 270.52737 
L 112.01592 270.52737 
L 112.145795 270.17827 
L 112.665294 270.17827 
L 112.795169 270.00372 
L 114.02898 270.00372 
L 114.321198 268.956421 
L 115.457602 268.956421 
L 115.587477 268.607321 
L 116.074508 268.607321 
L 116.204383 268.258221 
L 116.626476 268.258221 
L 116.756351 268.083672 
L 120.717532 268.083672 
L 120.847407 267.734572 
L 120.879876 267.734572 
L 121.00975 267.560022 
L 121.042219 267.560022 
L 121.172094 267.385472 
L 124.743651 267.385472 
L 124.873526 267.210922 
L 125.328088 267.210922 
L 125.457963 267.036372 
L 127.146335 267.036372 
L 127.27621 266.861823 
L 128.802239 266.861823 
L 128.932114 266.687273 
L 129.646425 266.687273 
L 129.7763 266.512723 
L 129.938643 266.512723 
L 130.068518 266.338173 
L 132.503671 266.338173 
L 132.633546 266.163623 
L 134.77648 266.163623 
L 134.906355 265.989073 
L 135.166104 265.989073 
L 135.295979 265.814523 
L 141.822188 265.814523 
L 141.952063 265.639974 
L 142.828718 265.639974 
L 142.958593 265.465424 
L 144.582028 265.465424 
L 144.711902 265.290874 
L 146.043119 265.290874 
L 146.172994 265.116324 
L 148.705553 265.116324 
L 148.835428 264.941774 
L 151.855017 264.941774 
L 151.984892 264.767224 
L 153.933014 264.767224 
L 154.062888 264.418124 
L 155.588917 264.418124 
L 155.718792 264.243575 
L 158.705913 264.243575 
L 158.835788 264.069025 
L 158.868256 264.069025 
L 158.998131 263.894475 
L 159.290349 263.894475 
L 159.420224 263.719925 
L 164.290529 263.719925 
L 164.420404 263.545375 
L 164.907435 263.545375 
L 165.03731 263.370825 
L 168.121836 263.370825 
L 168.251711 263.196275 
L 168.446523 263.196275 
L 168.576398 261.450777 
L 169.323178 261.450777 
L 169.453053 261.101677 
L 173.186954 261.101677 
L 173.316828 260.927127 
L 173.641515 260.927127 
L 173.77139 260.752577 
L 174.583108 260.752577 
L 174.712983 260.578028 
L 180.03785 260.578028 
L 180.167724 260.403478 
L 181.206723 260.403478 
L 181.336598 260.228928 
L 181.401535 260.228928 
L 181.53141 260.054378 
L 181.791159 260.054378 
L 181.921034 259.879828 
L 182.01844 259.879828 
L 182.148315 259.705278 
L 185.167904 259.705278 
L 185.297779 259.356178 
L 192.635706 259.356178 
L 192.765581 259.007079 
L 193.544829 259.007079 
L 193.674704 258.657979 
L 201.012631 258.657979 
L 201.142506 258.483429 
L 206.207623 258.483429 
L 206.337498 258.308879 
L 210.201273 258.308879 
L 210.331148 258.134329 
L 212.896175 258.134329 
L 213.02605 257.95978 
L 217.928824 257.95978 
L 218.058699 257.78523 
L 221.110757 257.78523 
L 221.240632 257.61068 
L 222.019881 257.61068 
L 222.149755 257.43613 
L 225.591438 257.43613 
L 225.721312 257.26158 
L 228.77337 257.26158 
L 228.903245 257.08703 
L 233.481332 257.08703 
L 233.611207 256.91248 
L 236.565859 256.91248 
L 236.695734 256.737931 
L 254.683394 256.737931 
L 254.813269 256.563381 
L 255.397706 256.563381 
L 255.52758 256.388831 
L 257.313359 256.388831 
L 257.443234 256.214281 
L 265.722753 256.214281 
L 265.852627 256.039731 
L 271.826869 256.039731 
L 271.956743 255.865181 
L 273.255491 255.865181 
L 273.385366 255.166982 
L 274.586708 255.166982 
L 274.716583 254.992432 
L 279.716763 254.992432 
L 279.846638 254.817882 
L 280.3012 254.817882 
L 280.431074 254.643332 
L 296.568019 254.643332 
L 296.697894 254.468782 
L 299.392796 254.468782 
L 299.522671 254.294232 
L 307.380097 254.294232 
L 307.509971 254.119683 
L 309.815249 254.119683 
L 309.945124 253.945133 
L 316.081709 253.945133 
L 316.211583 253.770583 
L 321.633856 253.770583 
L 321.763731 249.581386 
L 335.530461 249.581386 
L 335.660335 249.406836 
L 344.524291 249.406836 
L 344.654166 249.232286 
L 345.855508 249.232286 
L 345.985383 249.057737 
L 346.667225 249.057737 
L 346.7971 248.883187 
L 349.914095 248.883187 
L 350.04397 248.708637 
L 360.433955 248.708637 
L 360.563829 248.534087 
L 367.609538 248.534087 
L 367.739412 248.359537 
L 370.596658 248.359537 
L 370.726533 248.010437 
L 377.967053 248.010437 
L 378.096928 247.835888 
L 395.824839 247.835888 
L 395.954714 247.661338 
L 397.708024 247.661338 
L 397.837899 247.137688 
L 398.487273 247.137688 
L 398.487273 247.137688 
" style="fill:none;stroke:#ff7f0e;stroke-linecap:square;stroke-width:1.5;"/>
   </g>
   <g id="line2d_14">
    <path clip-path="url(#p9b32bb9427)" d="M 73.832727 290.8448 
L 73.995071 286.86844 
L 74.25482 284.27098 
L 75.163944 280.390823 
L 75.553568 277.440621 
L 75.975662 275.869317 
L 76.105536 275.292104 
L 76.138005 275.292104 
L 76.300349 274.426284 
L 76.365286 274.362149 
L 76.560098 272.534306 
L 76.689973 271.25161 
L 76.917254 270.802666 
L 77.371816 269.712374 
L 77.469222 269.616172 
L 77.664034 268.974823 
L 77.696503 268.974823 
L 78.02119 267.27525 
L 78.313408 266.120824 
L 78.443283 265.639812 
L 78.605626 265.383273 
L 78.703032 265.190869 
L 78.962782 264.54952 
L 79.190063 264.228846 
L 80.781029 259.771476 
L 80.878435 259.707341 
L 80.910904 259.643206 
L 81.073248 258.520847 
L 81.170654 258.456712 
L 81.332997 257.879498 
L 81.657684 256.949543 
L 81.722622 256.917476 
L 81.949903 256.564734 
L 82.27459 256.340262 
L 82.501871 255.217903 
L 82.664214 255.121701 
L 82.859026 254.640689 
L 82.956432 254.576555 
L 83.313588 253.806937 
L 83.443463 253.6466 
L 83.605806 253.357993 
L 83.76815 253.261791 
L 84.125306 252.844914 
L 84.287649 252.299768 
L 84.482461 252.107364 
L 84.644805 251.594285 
L 85.911084 248.098937 
L 86.073428 248.034802 
L 86.300709 247.425521 
L 86.333177 247.361387 
L 86.463052 247.040712 
L 86.52799 247.008645 
L 86.722802 246.687971 
L 86.885145 246.527634 
L 87.047489 246.431432 
L 87.27477 246.07869 
L 87.826738 244.731859 
L 87.956612 244.635656 
L 88.50858 244.09051 
L 88.638455 243.737769 
L 89.320298 243.032286 
L 89.580047 242.2306 
L 89.969672 241.653387 
L 90.034609 241.653387 
L 90.196953 241.204443 
L 90.26189 241.204443 
L 90.391765 240.787567 
L 90.489171 240.723432 
L 90.716452 240.466893 
L 90.781389 240.434825 
L 91.073608 239.889679 
L 91.171014 239.825544 
L 91.333357 239.216263 
L 91.593107 239.120061 
L 91.722982 238.414578 
L 91.75545 238.414578 
L 91.885325 238.254241 
L 92.047669 238.158039 
L 92.210012 237.997702 
L 92.339887 237.452556 
L 92.404824 237.420488 
L 92.567168 237.035679 
L 92.794449 236.77914 
L 92.891855 236.682938 
L 93.054199 236.458466 
L 93.249011 236.105724 
L 93.313948 236.073657 
L 93.50876 235.78505 
L 93.606166 235.688848 
L 94.190603 234.983365 
L 94.352947 234.438219 
L 94.580227 234.021342 
L 94.77504 233.92514 
L 95.132195 233.444129 
L 96.560818 232.161432 
L 96.625756 232.129365 
L 96.788099 231.904893 
L 96.820568 231.904893 
L 96.950443 231.744556 
L 97.047849 231.648354 
L 97.729692 230.525994 
L 98.216722 229.916713 
L 98.346597 229.531904 
L 98.573878 229.46777 
L 98.736221 229.371567 
L 99.223252 228.794354 
L 99.450533 228.377478 
L 99.483001 228.377478 
L 99.710282 227.896466 
L 100.132375 227.60786 
L 100.294719 227.543725 
L 100.554469 227.255118 
L 100.651875 227.223051 
L 100.814218 226.870309 
L 101.00903 226.774107 
L 101.171374 226.645837 
L 101.398655 226.581702 
L 101.52853 226.453433 
L 101.788279 226.357231 
L 101.950623 226.325163 
L 102.145435 226.261028 
L 102.372716 226.036556 
L 102.470122 225.940354 
L 102.567528 225.812084 
L 102.697403 223.663568 
L 103.151965 223.118422 
L 103.281839 221.89986 
L 103.476652 221.803658 
L 105.197493 220.104085 
L 105.327368 219.91168 
L 105.846867 219.815478 
L 106.074148 219.558939 
L 106.26896 219.494804 
L 106.593647 219.077928 
L 107.01574 218.789321 
L 107.048209 218.789321 
L 107.210552 218.596916 
L 107.372896 218.436579 
L 107.567708 218.115905 
L 107.76252 217.859366 
L 107.892395 217.795231 
L 108.054739 217.410422 
L 108.217082 217.378355 
L 108.346957 217.282152 
L 108.5093 217.089748 
L 109.450893 216.288063 
L 109.710642 216.19186 
L 109.937923 215.935321 
L 110.035329 215.871186 
L 110.360016 215.45431 
L 110.554829 215.390175 
L 110.749641 215.101568 
L 111.074328 215.005366 
L 111.366546 214.845029 
L 111.463952 214.845029 
L 111.626296 214.524355 
L 111.821108 214.46022 
L 112.080858 214.139546 
L 112.438013 214.043344 
L 112.470482 214.011276 
L 112.600357 213.5944 
L 112.795169 213.530265 
L 113.184793 212.985119 
L 113.217262 212.985119 
L 113.379606 212.792714 
L 113.606887 212.568243 
L 113.899105 212.47204 
L 114.223792 212.055164 
L 114.51601 211.958962 
L 114.77576 211.670355 
L 114.938103 211.638288 
L 115.100447 211.574153 
L 115.26279 211.477951 
L 115.652415 211.413816 
L 115.78229 211.253479 
L 115.847227 211.157276 
L 115.912164 211.125209 
L 116.074508 210.772467 
L 116.204383 210.676265 
L 116.561538 210.451793 
L 116.691413 210.419726 
L 116.853757 210.227321 
L 117.113506 210.131119 
L 117.27585 209.778378 
L 117.373256 209.778378 
L 117.535599 209.521838 
L 117.633005 209.489771 
L 117.76288 208.816355 
L 118.055099 208.720153 
L 118.217442 208.623951 
L 118.28238 208.623951 
L 118.412254 208.239142 
L 118.801879 208.142939 
L 118.996691 208.078805 
L 119.126566 207.469524 
L 119.223972 207.405389 
L 119.483721 206.796108 
L 119.646065 206.699906 
L 120.230502 206.250962 
L 120.327908 206.186827 
L 120.457783 206.122692 
L 120.750001 206.02649 
L 121.2695 205.641681 
L 121.399375 205.577546 
L 121.561718 205.192737 
L 121.886405 205.096535 
L 122.860466 204.262782 
L 122.957873 204.198648 
L 123.217622 203.877973 
L 123.28256 203.813839 
L 123.574778 203.461097 
L 123.672184 203.461097 
L 123.834527 203.268693 
L 124.386495 202.851816 
L 124.51637 202.819749 
L 124.678714 202.467007 
L 125.26315 202.370805 
L 125.5229 202.082198 
L 125.912524 202.018063 
L 126.237211 201.601187 
L 126.52943 201.504985 
L 126.756711 201.408783 
L 127.048929 201.31258 
L 127.308679 201.184311 
L 127.503491 201.088108 
L 127.633366 200.927771 
L 127.893115 200.831569 
L 128.152865 200.703299 
L 128.28274 200.639165 
L 128.542489 200.190221 
L 128.737301 200.029884 
L 129.094457 199.933682 
L 129.646425 199.356468 
L 129.7763 198.554783 
L 129.938643 198.522715 
L 130.26333 198.426513 
L 130.425674 198.330311 
L 130.717892 198.234109 
L 130.912704 198.073772 
L 131.204923 197.881367 
L 131.334797 197.207951 
L 131.691953 197.175884 
L 131.854297 196.983479 
L 132.081578 196.887277 
L 132.308859 196.310064 
L 132.601077 196.245929 
L 132.730952 196.117659 
L 132.990701 196.021457 
L 133.315388 195.829053 
L 133.76995 195.73285 
L 134.321918 195.315974 
L 134.646605 195.219772 
L 134.77648 195.187704 
L 134.906355 194.899098 
L 134.971292 194.834963 
L 135.166104 194.642558 
L 135.198573 194.642558 
L 135.328448 194.482221 
L 135.912884 194.418086 
L 136.042759 194.289817 
L 136.302509 194.193614 
L 136.562258 194.065345 
L 136.627196 194.033277 
L 136.757071 193.905008 
L 137.01682 193.808806 
L 137.341507 193.616401 
L 137.7636 193.520199 
L 137.893475 193.391929 
L 138.250631 193.295727 
L 138.445443 193.231592 
L 138.705193 193.13539 
L 138.867536 192.942985 
L 138.964942 192.878851 
L 139.094817 192.494042 
L 139.159755 192.494042 
L 139.289629 192.26957 
L 139.679254 192.01303 
L 139.971472 191.916828 
L 140.133816 191.724424 
L 140.555909 191.628221 
L 140.815658 191.499952 
L 141.757251 191.403749 
L 141.919594 191.211345 
L 141.984532 191.115143 
L 142.244281 190.986873 
L 142.406625 190.922738 
L 142.536499 190.858603 
L 142.828718 190.794469 
L 142.958593 190.730334 
L 143.28328 190.634132 
L 143.867716 190.185188 
L 144.127466 190.121053 
L 144.257341 190.056918 
L 144.614496 190.024851 
L 144.744371 189.896581 
L 145.458683 189.800379 
L 145.78337 189.607974 
L 145.880776 189.575907 
L 146.010651 189.479705 
L 146.075588 189.479705 
L 146.205463 189.191098 
L 146.335338 189.094896 
L 146.660025 188.902491 
L 146.887305 188.806289 
L 147.082118 188.742154 
L 147.179524 188.710087 
L 147.309399 188.581817 
L 147.439273 188.485615 
L 147.601617 188.389413 
L 147.861367 188.29321 
L 148.056179 188.036671 
L 149.257521 187.940469 
L 149.549739 187.780132 
L 149.744551 187.683929 
L 149.906895 187.55566 
L 150.101707 187.491525 
L 150.5238 186.882244 
L 150.78355 186.786042 
L 150.913424 186.721907 
L 151.27058 186.625705 
L 151.432924 186.593637 
L 151.887485 186.497435 
L 152.01736 186.369166 
L 152.212172 186.337098 
L 152.374516 186.144694 
L 152.894015 186.048491 
L 153.056359 186.016424 
L 153.445983 185.920222 
L 153.933014 185.56748 
L 154.322638 185.471278 
L 154.452513 185.246806 
L 154.582388 185.150604 
L 154.874606 185.054402 
L 155.069418 184.861997 
L 155.881136 184.765795 
L 156.075948 184.477188 
L 156.108417 184.477188 
L 156.238291 184.316851 
L 156.335698 184.284784 
L 156.465572 184.124447 
L 156.790259 184.028244 
L 156.822728 183.996177 
L 156.952603 183.771705 
L 157.179884 183.675503 
L 157.569508 183.579301 
L 157.731852 183.547233 
L 157.861727 183.483098 
L 158.02407 183.354829 
L 158.153945 183.290694 
L 158.28382 183.226559 
L 158.316288 183.226559 
L 158.446163 182.873817 
L 158.803319 182.777615 
L 158.998131 182.71348 
L 159.615036 182.617278 
L 159.809849 182.553143 
L 160.167004 182.489008 
L 160.296879 182.360739 
L 160.589097 182.296604 
L 160.751441 182.200402 
L 161.303409 182.104199 
L 161.498221 182.040065 
L 161.757971 181.97593 
L 161.887846 181.879728 
L 161.920314 181.879728 
L 162.082658 181.078042 
L 162.374876 180.98184 
L 162.569688 180.917705 
L 163.284 180.885638 
L 163.413874 180.725301 
L 163.77103 180.629098 
L 163.900905 180.500829 
L 164.128186 180.404627 
L 164.322998 180.244289 
L 164.550279 180.212222 
L 164.680154 180.11602 
L 164.874966 180.051885 
L 165.134716 179.98775 
L 165.297059 179.891548 
L 165.946433 179.795346 
L 166.173714 179.570874 
L 166.433464 179.506739 
L 166.563339 179.410537 
L 166.888026 179.218132 
L 167.310119 179.12193 
L 167.504931 179.057795 
L 167.699743 178.961593 
L 167.927024 178.865391 
L 168.738742 178.769188 
L 168.901085 178.640919 
L 169.453053 178.576784 
L 169.582928 178.416447 
L 169.940083 178.384379 
L 170.134896 178.095773 
L 170.394645 177.999571 
L 170.78427 177.743031 
L 171.498581 177.710964 
L 171.628456 177.358222 
L 171.823268 177.197885 
L 172.147955 177.13375 
L 172.27783 177.069616 
L 172.927204 176.973413 
L 173.089548 176.941346 
L 173.414235 176.845144 
L 173.609047 176.781009 
L 173.966202 176.684807 
L 174.193483 176.588604 
L 174.583108 176.524469 
L 174.712983 176.3962 
L 175.297419 176.299998 
L 175.427294 176.171728 
L 175.849387 176.075526 
L 176.011731 175.979323 
L 176.303949 175.915189 
L 176.433824 175.786919 
L 176.596167 175.722784 
L 176.726042 175.466245 
L 176.888386 175.434177 
L 177.440353 175.337975 
L 177.570228 175.27384 
L 178.609227 175.177638 
L 178.804039 175.113503 
L 179.323538 175.017301 
L 179.453413 174.921099 
L 179.875506 174.824897 
L 180.070318 174.760762 
L 180.362537 174.664559 
L 180.622286 174.53629 
L 180.719692 174.440088 
L 180.849567 174.343885 
L 181.141785 174.311818 
L 181.27166 174.151481 
L 181.693753 174.055279 
L 181.856097 174.023211 
L 182.083378 173.959076 
L 182.245721 173.830807 
L 182.635346 173.798739 
L 182.765221 173.478065 
L 183.187314 173.381863 
L 183.382126 173.317728 
L 183.674344 173.221526 
L 183.966562 173.061189 
L 184.615937 172.964987 
L 184.810749 172.900852 
L 185.070498 172.836717 
L 185.200373 172.772582 
L 185.78481 172.708447 
L 185.947153 172.54811 
L 186.304309 172.483975 
L 186.466652 172.355706 
L 186.499121 172.355706 
L 186.628996 172.002964 
L 187.375776 171.938829 
L 187.505651 171.81056 
L 187.765401 171.746425 
L 187.960213 171.586088 
L 189.03168 171.489886 
L 189.258961 171.393683 
L 189.421304 171.393683 
L 189.551179 171.169211 
L 190.005741 171.105077 
L 190.168084 171.008874 
L 191.207083 170.912672 
L 191.401895 170.848537 
L 192.0188 170.752335 
L 192.213613 170.6882 
L 192.895455 170.591998 
L 193.057799 170.431661 
L 193.382486 170.335459 
L 193.577298 170.271324 
L 194.096797 170.175122 
L 194.226672 170.078919 
L 194.551359 169.982717 
L 194.746171 169.918582 
L 195.363077 169.854447 
L 195.492951 169.790313 
L 196.629356 169.69411 
L 196.759231 169.629976 
L 197.311199 169.533773 
L 197.53848 169.437571 
L 198.317729 169.341369 
L 198.577478 169.213099 
L 198.934634 169.116897 
L 199.194383 168.988627 
L 199.713883 168.892425 
L 199.876226 168.860358 
L 200.493131 168.764155 
L 200.720412 168.667953 
L 201.337318 168.571751 
L 201.467193 168.443481 
L 202.213973 168.347279 
L 202.473722 168.219009 
L 202.571128 168.154874 
L 202.701003 168.09074 
L 203.090628 168.026605 
L 203.220502 167.930403 
L 204.03222 167.8342 
L 204.259501 167.737998 
L 205.590718 167.641796 
L 205.850467 167.513526 
L 206.434904 167.417324 
L 206.694653 167.289054 
L 207.246621 167.192852 
L 207.408965 167.064582 
L 207.733652 166.96838 
L 207.993402 166.840111 
L 208.383026 166.743908 
L 208.577838 166.679773 
L 209.064869 166.583571 
L 209.357087 166.423234 
L 209.681774 166.327032 
L 209.844118 166.294964 
L 210.428554 166.198762 
L 210.720772 166.038425 
L 211.954583 165.942223 
L 212.246801 165.781886 
L 212.733832 165.685684 
L 212.961113 165.589481 
L 213.480612 165.493279 
L 213.740362 165.365009 
L 214.649485 165.268807 
L 214.811829 165.23674 
L 215.298859 165.172605 
L 215.428734 164.948133 
L 215.948233 164.883998 
L 216.110577 164.787796 
L 216.759951 164.691594 
L 216.922294 164.595392 
L 217.149575 164.499189 
L 217.311919 164.467122 
L 217.993762 164.402987 
L 218.156105 164.306785 
L 218.708073 164.210583 
L 218.902885 164.146448 
L 219.77954 164.050246 
L 219.941884 163.954043 
L 220.104227 163.921976 
L 220.688664 163.857841 
L 220.818539 163.729571 
L 220.980882 163.633369 
L 221.143226 163.601302 
L 221.53285 163.505099 
L 221.760131 163.24856 
L 222.312099 163.152358 
L 222.506911 163.088223 
L 222.636786 162.543077 
L 223.02641 162.446875 
L 223.188754 162.414807 
L 224.909595 162.318605 
L 225.104407 162.25447 
L 225.364157 162.190336 
L 225.494032 162.126201 
L 227.052529 162.029998 
L 227.214873 161.997931 
L 228.675964 161.901729 
L 228.968183 161.741392 
L 229.942244 161.645189 
L 230.169525 161.548987 
L 230.624086 161.484852 
L 230.753961 161.38865 
L 230.948773 161.324515 
L 231.143586 161.132111 
L 232.085178 161.035909 
L 232.409865 160.843504 
L 232.734552 160.747302 
L 232.896896 160.715234 
L 234.260581 160.619032 
L 234.455393 160.554897 
L 234.812549 160.490763 
L 234.942424 160.39456 
L 235.559329 160.298358 
L 235.689204 160.202156 
L 236.663265 160.105954 
L 236.825608 160.073886 
L 237.28017 159.977684 
L 237.474982 159.785279 
L 237.637326 159.689077 
L 237.767201 159.624942 
L 238.481512 159.52874 
L 238.676324 159.464605 
L 239.488042 159.368403 
L 239.877666 159.111864 
L 240.52704 159.015662 
L 240.721853 158.951527 
L 241.663445 158.855324 
L 241.890726 158.759122 
L 242.929724 158.759122 
L 243.059599 158.502583 
L 243.28688 158.470516 
L 243.449223 158.278111 
L 244.098597 158.181909 
L 244.260941 158.149841 
L 244.715503 158.117774 
L 244.845378 158.021572 
L 245.007721 157.989504 
L 246.111657 157.893302 
L 246.306469 157.829167 
L 247.442874 157.732965 
L 247.670155 157.636763 
L 247.994842 157.540561 
L 248.222123 157.444358 
L 249.001371 157.348156 
L 249.163715 157.316089 
L 249.715683 157.219886 
L 250.105307 156.963347 
L 251.79368 156.867145 
L 251.956023 156.835077 
L 252.637866 156.738875 
L 252.832678 156.67474 
L 253.189834 156.578538 
L 253.384646 156.514403 
L 255.008081 156.418201 
L 255.202893 156.257864 
L 255.462643 156.129594 
L 256.469173 156.033392 
L 256.631516 156.001325 
L 257.248422 155.93719 
L 257.378296 155.744785 
L 257.930264 155.680651 
L 258.092608 155.552381 
L 258.871857 155.456179 
L 259.0342 155.424111 
L 260.008261 155.327909 
L 260.235542 155.231707 
L 260.462823 155.199639 
L 260.592698 155.103437 
L 261.307009 155.007235 
L 261.469353 154.975167 
L 261.696634 154.975167 
L 261.826508 154.81483 
L 262.151195 154.718628 
L 262.28107 154.622426 
L 262.865507 154.590358 
L 262.995382 154.462089 
L 263.54735 154.365887 
L 263.677224 154.237617 
L 264.03438 154.141415 
L 264.196724 154.109347 
L 264.391536 154.109347 
L 264.521411 153.788673 
L 264.683754 153.756606 
L 265.170785 153.724538 
L 265.30066 153.628336 
L 266.599408 153.532134 
L 266.79422 153.467999 
L 267.346188 153.371797 
L 267.508531 153.339729 
L 268.774811 153.243527 
L 268.937154 153.21146 
L 269.196904 153.179392 
L 269.359247 153.019055 
L 269.521591 152.986988 
L 271.209963 152.890786 
L 271.372307 152.858718 
L 271.567119 152.858718 
L 271.696994 152.570111 
L 271.859337 152.538044 
L 272.313899 152.473909 
L 272.476243 152.345639 
L 272.995742 152.249437 
L 273.158085 152.153235 
L 274.716583 152.057033 
L 274.911395 151.992898 
L 275.950394 151.896696 
L 276.112737 151.864628 
L 277.021861 151.768426 
L 277.249142 151.672224 
L 278.645296 151.576022 
L 278.807639 151.543954 
L 278.905045 151.447752 
L 279.067389 151.415684 
L 280.171325 151.319482 
L 280.3012 151.255347 
L 280.723293 151.191213 
L 280.918105 150.870538 
L 281.53501 150.806404 
L 281.664885 150.710201 
L 281.892166 150.646067 
L 282.022041 150.581932 
L 282.444134 150.485729 
L 282.638946 150.421595 
L 283.353258 150.325392 
L 283.515601 150.293325 
L 284.132506 150.261258 
L 284.262381 150.132988 
L 284.489662 150.100921 
L 284.619537 150.004718 
L 285.885816 149.908516 
L 286.015691 149.780246 
L 288.2885 149.684044 
L 288.515781 149.587842 
L 289.002812 149.523707 
L 289.132686 149.459572 
L 290.366497 149.36337 
L 290.528841 149.331303 
L 291.113277 149.267168 
L 291.243152 149.203033 
L 291.989932 149.106831 
L 292.152276 149.074763 
L 293.645836 149.010628 
L 293.775711 148.946494 
L 294.619897 148.850291 
L 294.78224 148.818224 
L 295.171865 148.722022 
L 295.366677 148.657887 
L 297.769361 148.561685 
L 297.931704 148.529617 
L 298.483672 148.433415 
L 298.743422 148.305145 
L 298.808359 148.305145 
L 298.938234 148.112741 
L 299.262921 148.016539 
L 299.425265 147.920336 
L 300.172045 147.856202 
L 300.30192 147.759999 
L 302.704604 147.663797 
L 302.931884 147.567595 
L 304.100758 147.471393 
L 304.360507 147.343123 
L 306.178755 147.246921 
L 306.406036 147.150718 
L 307.250222 147.054516 
L 307.639846 146.797977 
L 309.815249 146.701775 
L 309.977593 146.669707 
L 311.04906 146.573505 
L 311.211403 146.541438 
L 311.665965 146.50937 
L 311.79584 146.381101 
L 313.062119 146.284898 
L 313.224463 146.252831 
L 313.776431 146.156629 
L 314.101118 145.964224 
L 316.666145 145.868022 
L 316.828489 145.835954 
L 317.80255 145.77182 
L 317.932425 145.707685 
L 318.224643 145.611483 
L 318.419455 145.547348 
L 318.971423 145.451146 
L 319.133766 145.419078 
L 321.439044 145.322876 
L 321.601388 145.290808 
L 322.120887 145.226674 
L 322.250762 145.162539 
L 323.354698 145.066337 
L 323.517041 145.034269 
L 324.263821 144.938067 
L 324.426165 144.905999 
L 325.562569 144.809797 
L 325.724913 144.77773 
L 327.315879 144.713595 
L 327.445754 144.360853 
L 327.835378 144.360853 
L 327.965253 144.232584 
L 328.647096 144.136382 
L 328.776971 144.072247 
L 329.523751 143.976044 
L 329.686094 143.943977 
L 330.919905 143.847775 
L 331.04978 143.719505 
L 332.705684 143.623303 
L 332.835558 143.462966 
L 332.868027 143.462966 
L 332.997902 143.270561 
L 334.523931 143.206427 
L 334.653806 143.142292 
L 338.939674 143.046089 
L 339.102018 143.014022 
L 339.978673 142.91782 
L 340.108548 142.853685 
L 340.628047 142.78955 
L 340.79039 142.693348 
L 341.374827 142.661281 
L 341.504702 142.533011 
L 345.693164 142.468876 
L 345.823039 142.404741 
L 348.160786 142.308539 
L 348.29066 142.244404 
L 348.55041 142.148202 
L 348.712753 142.116134 
L 352.511592 142.019932 
L 352.706404 141.955797 
L 354.686995 141.859595 
L 354.881807 141.79546 
L 359.037801 141.731326 
L 359.167675 141.667191 
L 360.693704 141.570988 
L 361.05086 141.346517 
L 361.148266 141.250314 
L 361.343078 141.186179 
L 362.739232 141.089977 
L 362.869107 141.025842 
L 367.609538 140.92964 
L 367.739412 140.865505 
L 368.486193 140.801371 
L 368.616067 140.737236 
L 369.817409 140.641033 
L 369.979753 140.608966 
L 370.466783 140.544831 
L 370.694064 140.288292 
L 371.408376 140.19209 
L 371.603188 140.127955 
L 376.733243 140.031753 
L 376.960524 139.93555 
L 377.317679 139.839348 
L 377.512492 139.775213 
L 378.519021 139.679011 
L 378.648896 139.486607 
L 380.337269 139.422472 
L 380.532081 139.230067 
L 385.824479 139.133865 
L 385.986823 139.101798 
L 387.512852 139.005595 
L 387.707664 138.941461 
L 388.876537 138.845258 
L 389.038881 138.813191 
L 394.461154 138.716989 
L 394.655966 138.652854 
L 396.896306 138.556652 
L 397.05865 138.524584 
L 397.448274 138.428382 
L 397.578149 138.364247 
L 398.487273 138.268045 
L 398.487273 138.268045 
" style="fill:none;stroke:#2ca02c;stroke-linecap:square;stroke-width:1.5;"/>
   </g>
   <g id="line2d_15">
    <path clip-path="url(#p9b32bb9427)" d="M 73.832727 295.100877 
L 73.995071 293.605349 
L 74.027539 293.605349 
L 74.25482 292.697349 
L 74.352226 292.483703 
L 74.51457 292.002997 
L 74.579507 291.949585 
L 74.77432 290.827939 
L 75.163944 290.026763 
L 75.586037 287.836883 
L 75.618506 287.836883 
L 76.040599 286.234531 
L 76.138005 286.234531 
L 76.300349 285.379944 
L 76.365286 285.326532 
L 77.112066 282.17524 
L 77.177004 282.121829 
L 77.339347 281.5343 
L 77.436753 281.5343 
L 77.599097 281.107006 
L 77.696503 281.000182 
L 77.858846 280.466065 
L 77.923784 280.359242 
L 78.151065 279.504654 
L 78.50822 278.703478 
L 78.670564 278.489832 
L 78.703032 278.489832 
L 78.865376 278.009126 
L 79.125126 277.528421 
L 79.319938 277.475009 
L 79.677094 276.620421 
L 79.806968 276.513598 
L 80.034249 275.926069 
L 80.164124 275.819246 
L 80.229061 275.712422 
L 80.358936 275.33854 
L 80.52128 275.178305 
L 80.651155 275.124893 
L 80.781029 275.01807 
L 80.878435 274.911246 
L 81.073248 274.270306 
L 81.170654 274.270306 
L 81.365466 273.682777 
L 81.917434 272.988424 
L 81.982371 272.881601 
L 82.404464 272.187249 
L 82.534339 271.492896 
L 82.664214 271.492896 
L 82.891495 270.905367 
L 83.410994 270.264427 
L 83.540869 270.211015 
L 83.833087 269.623486 
L 84.0279 269.516662 
L 84.125306 269.409839 
L 84.287649 268.662075 
L 84.449993 268.608663 
L 84.677274 267.914311 
L 84.742211 267.807487 
L 84.872086 267.487017 
L 85.034429 267.059723 
L 85.196773 266.9529 
L 85.651335 266.418783 
L 85.716272 266.365371 
L 85.911084 265.884665 
L 86.26824 265.777842 
L 86.495521 265.350548 
L 86.52799 265.350548 
L 86.657864 265.136901 
L 86.722802 265.136901 
L 86.885145 264.763019 
L 87.372176 264.656196 
L 87.566988 264.549372 
L 87.729331 264.442549 
L 87.924144 264.122079 
L 88.378706 264.122079 
L 88.541049 263.587961 
L 88.735861 263.481138 
L 88.930673 263.374315 
L 89.02808 263.267491 
L 89.190423 263.214079 
L 89.417704 263.214079 
L 89.547579 262.252668 
L 89.742391 262.199257 
L 90.489171 260.1162 
L 90.781389 260.009376 
L 90.943733 259.955964 
L 91.106076 259.955964 
L 91.26842 259.261612 
L 91.593107 259.261612 
L 91.722982 258.941142 
L 91.787919 258.834318 
L 92.0152 258.674083 
L 92.210012 258.620671 
L 92.469762 258.139966 
L 92.729511 258.033142 
L 92.989261 257.819496 
L 93.184073 257.766084 
L 93.313948 257.605849 
L 93.476292 257.552437 
L 93.606166 257.231967 
L 93.898385 257.125143 
L 94.093197 257.01832 
L 94.158134 256.911496 
L 94.352947 256.804673 
L 94.51529 256.751261 
L 94.77504 256.270556 
L 94.839977 256.270556 
L 94.969852 256.11032 
L 95.132195 256.003497 
L 95.391945 255.78985 
L 95.456882 255.78985 
L 95.586757 255.629615 
L 95.814038 255.629615 
L 95.976382 255.255733 
L 96.106256 255.202321 
L 96.2686 255.042086 
L 96.463412 254.935263 
L 96.75563 254.828439 
L 96.950443 254.721616 
L 97.340067 254.614792 
L 97.437473 254.24091 
L 97.567348 253.760205 
L 97.956972 253.332911 
L 98.216722 253.226088 
L 98.346597 252.69197 
L 98.444003 252.638559 
L 98.573878 252.424912 
L 98.866096 252.318088 
L 99.02844 252.264677 
L 99.125846 252.157853 
L 99.320658 252.05103 
L 99.483001 251.944206 
L 99.645345 251.890794 
L 100.132375 251.783971 
L 100.392125 251.303266 
L 100.522 251.196442 
L 100.651875 251.089619 
L 100.749281 250.982795 
L 100.879156 250.875972 
L 101.138905 250.82256 
L 101.26878 250.715737 
L 101.398655 250.715737 
L 101.560998 250.341855 
L 102.01556 250.288443 
L 102.145435 250.128208 
L 102.340247 250.074796 
L 102.470122 249.967973 
L 102.957152 249.861149 
L 103.151965 249.700914 
L 103.281839 248.739503 
L 103.411714 248.63268 
L 103.606526 248.525856 
L 103.736401 248.419033 
L 103.898745 248.365621 
L 104.02862 248.258797 
L 104.158494 248.151974 
L 104.548119 248.045151 
L 104.7754 247.884915 
L 105.197493 247.831504 
L 105.327368 247.243975 
L 105.587117 247.137151 
L 105.781929 247.030328 
L 106.106616 246.923504 
L 106.26896 246.870093 
L 106.463772 246.763269 
L 106.626116 246.709858 
L 107.145615 246.656446 
L 107.27549 246.549622 
L 107.730052 246.442799 
L 107.859926 246.282564 
L 107.892395 246.282564 
L 108.054739 245.801858 
L 108.346957 245.801858 
L 108.476832 245.641623 
L 108.931394 245.5348 
L 109.126206 245.427976 
L 109.77558 245.374565 
L 109.905455 245.107506 
L 110.100267 245.000682 
L 110.26261 244.947271 
L 110.619766 244.893859 
L 110.749641 244.6268 
L 111.041859 244.519977 
L 111.204203 244.359742 
L 111.496421 244.252918 
L 111.658764 244.092683 
L 112.27567 243.98586 
L 112.405545 243.879036 
L 112.795169 243.772213 
L 113.152325 243.398331 
L 113.574418 243.291507 
L 113.736761 243.238096 
L 113.996511 243.131272 
L 114.158854 243.077861 
L 114.905635 242.971037 
L 115.035509 242.864214 
L 115.392665 242.75739 
L 115.587477 242.650567 
L 115.912164 242.543743 
L 116.042039 242.063038 
L 116.301789 241.956214 
L 116.756351 241.422097 
L 116.886225 241.315274 
L 117.048569 241.155039 
L 117.178444 241.101627 
L 117.308318 240.88798 
L 117.665474 240.781157 
L 117.860286 240.300451 
L 118.28238 240.247039 
L 118.412254 240.033392 
L 118.639535 239.926569 
L 118.76941 239.819746 
L 118.996691 239.766334 
L 119.159034 239.552687 
L 119.743471 239.445863 
L 119.873346 239.232217 
L 120.035689 239.071981 
L 120.685063 238.965158 
L 121.139625 238.431041 
L 121.691593 238.324217 
L 121.886405 238.217394 
L 122.081218 238.11057 
L 122.243561 237.950335 
L 122.405905 237.896924 
L 123.250091 237.7901 
L 123.444903 237.46963 
L 124.191683 237.362806 
L 124.386495 237.255983 
L 124.548839 237.149159 
L 124.808588 236.935513 
L 124.970932 236.882101 
L 125.198213 236.24116 
L 125.393025 236.134337 
L 125.555369 236.080925 
L 125.880056 235.974102 
L 126.107337 235.813866 
L 126.464492 235.760455 
L 126.626836 235.60022 
L 126.854117 235.493396 
L 127.081398 235.333161 
L 127.373616 235.226338 
L 127.503491 235.119514 
L 128.152865 235.012691 
L 128.347677 234.905867 
L 128.964582 234.799044 
L 129.191863 234.638809 
L 129.451613 234.531985 
L 129.613956 234.478573 
L 129.646425 234.478573 
L 129.7763 233.303516 
L 130.003581 233.14328 
L 130.555549 233.036457 
L 130.717892 232.983045 
L 130.750361 232.983045 
L 130.880236 232.82281 
L 131.042579 232.715987 
L 131.204923 232.609163 
L 131.334797 231.647752 
L 131.789359 231.59434 
L 131.919234 231.487517 
L 132.178984 231.380694 
L 132.308859 230.739753 
L 132.698483 230.63293 
L 132.828358 230.152224 
L 133.088107 230.098812 
L 133.217982 229.991989 
L 133.964762 229.885165 
L 134.094637 229.778342 
L 134.646605 229.671519 
L 134.808949 229.511283 
L 135.945353 229.40446 
L 136.107697 229.351048 
L 136.334977 229.244225 
L 136.562258 229.08399 
L 136.951883 229.030578 
L 137.081758 228.923754 
L 137.7636 228.816931 
L 137.893475 228.656696 
L 138.218162 228.603284 
L 138.380506 228.443049 
L 138.867536 228.336226 
L 139.062348 228.229402 
L 139.159755 228.122579 
L 139.289629 227.962343 
L 140.588377 227.85552 
L 140.750721 227.802108 
L 141.789719 227.695285 
L 141.984532 227.588461 
L 142.666374 227.481638 
L 142.926124 227.267991 
L 143.153405 227.161168 
L 143.380686 227.000932 
L 144.711902 226.894109 
L 144.874246 226.840697 
L 145.653495 226.733874 
L 145.815838 226.520227 
L 146.075588 226.520227 
L 146.205463 226.30658 
L 146.497681 226.199757 
L 146.660025 226.039521 
L 147.309399 225.932698 
L 147.536679 225.772463 
L 149.289989 225.719051 
L 149.419864 225.612228 
L 149.744551 225.505404 
L 149.971832 225.345169 
L 150.134176 225.238346 
L 150.296519 225.024699 
L 151.043299 224.917875 
L 151.205643 224.75764 
L 151.725142 224.650817 
L 151.887485 224.597405 
L 152.894015 224.490582 
L 153.02389 224.383758 
L 154.647325 224.276935 
L 154.874606 224.1167 
L 155.26423 224.009876 
L 155.459043 223.903053 
L 155.978542 223.796229 
L 156.140885 223.422347 
L 156.335698 223.315524 
L 156.855197 223.2087 
L 157.01754 223.048465 
L 157.342227 223.048465 
L 157.504571 222.781407 
L 157.569508 222.781407 
L 157.731852 222.514348 
L 158.381226 222.407524 
L 158.543569 222.354113 
L 159.290349 222.247289 
L 159.420224 222.087054 
L 159.907255 221.980231 
L 160.102067 221.873407 
L 161.335878 221.766584 
L 161.498221 221.713172 
L 161.595627 221.606349 
L 161.757971 221.552937 
L 161.920314 221.499525 
L 162.050189 220.591526 
L 162.180064 220.484703 
L 162.212533 220.484703 
L 162.342407 219.149409 
L 162.634626 218.882351 
L 162.991781 218.828939 
L 163.121656 218.722116 
L 163.77103 218.722116 
L 163.900905 218.401645 
L 165.069778 218.294822 
L 165.232122 218.24141 
L 165.978902 218.134587 
L 166.238652 217.92094 
L 166.498401 217.867528 
L 166.628276 217.653881 
L 167.342587 217.547058 
L 167.504931 217.493646 
L 168.154305 217.440234 
L 168.316648 217.279999 
L 168.738742 217.226588 
L 168.868616 217.119764 
L 170.459583 217.012941 
L 170.654395 216.906117 
L 171.466112 216.799294 
L 171.790799 216.478823 
L 172.53758 216.425412 
L 172.667454 216.318588 
L 173.02461 216.211765 
L 173.251891 216.05153 
L 173.966202 215.944706 
L 174.096077 215.837883 
L 175.070138 215.731059 
L 175.26495 215.624236 
L 175.816918 215.517412 
L 175.979262 215.464001 
L 176.239012 215.357177 
L 176.401355 215.303766 
L 176.693573 215.196942 
L 176.888386 215.090119 
L 177.797509 214.983295 
L 177.959853 214.929884 
L 179.420944 214.82306 
L 179.583288 214.769648 
L 180.03785 214.716237 
L 180.167724 214.342355 
L 180.622286 214.235531 
L 180.817098 214.128708 
L 181.141785 214.075296 
L 181.304129 213.915061 
L 182.310659 213.808237 
L 182.473002 213.754826 
L 182.667814 213.701414 
L 182.797689 213.59459 
L 183.512001 213.487767 
L 183.674344 213.327532 
L 184.258781 213.220708 
L 184.453593 213.113885 
L 185.070498 213.007062 
L 185.232842 212.95365 
L 185.849747 212.846826 
L 186.077028 212.686591 
L 186.823808 212.579768 
L 186.986152 212.526356 
L 188.252431 212.472944 
L 188.382306 212.312709 
L 189.421304 212.205886 
L 189.583648 212.152474 
L 189.940804 212.045651 
L 190.103147 211.992239 
L 191.499301 211.885415 
L 191.726582 211.72518 
L 192.700643 211.618357 
L 192.862987 211.564945 
L 193.057799 211.458122 
L 193.220142 211.40471 
L 194.648765 211.297886 
L 194.77864 211.191063 
L 195.330608 211.08424 
L 195.492951 211.030828 
L 196.402075 210.924004 
L 196.53195 210.817181 
L 196.856637 210.763769 
L 196.986512 210.656946 
L 198.090448 210.550122 
L 198.220322 210.443299 
L 201.174974 210.336475 
L 201.337318 210.283064 
L 202.246441 210.17624 
L 202.408785 210.122829 
L 202.53866 210.122829 
L 202.668534 209.588711 
L 204.616657 209.481888 
L 204.779 209.428476 
L 205.720592 209.375065 
L 205.850467 209.268241 
L 207.149215 209.161418 
L 207.344027 209.054594 
L 208.610307 208.947771 
L 208.805119 208.840947 
L 210.168805 208.734124 
L 210.363617 208.6273 
L 211.370146 208.520477 
L 211.53249 208.467065 
L 211.987052 208.360242 
L 212.149395 208.30683 
L 213.480612 208.200007 
L 213.675424 208.093183 
L 215.363797 207.98636 
L 215.52614 207.932948 
L 216.045639 207.826125 
L 216.240452 207.719301 
L 217.019701 207.612478 
L 217.182044 207.559066 
L 217.993762 207.452243 
L 218.156105 207.398831 
L 219.876946 207.292007 
L 220.03929 207.238596 
L 220.266571 207.131772 
L 220.461383 207.024949 
L 221.695194 206.918125 
L 221.857537 206.864714 
L 222.019881 206.75789 
L 222.182224 206.704478 
L 222.506911 206.597655 
L 222.636786 206.330596 
L 224.260221 206.223773 
L 224.422564 206.170361 
L 226.208343 206.063538 
L 226.370687 206.010126 
L 227.53956 205.903303 
L 227.701903 205.849891 
L 228.675964 205.743067 
L 228.870777 205.636244 
L 229.130526 205.529421 
L 229.325338 205.422597 
L 231.27346 205.315774 
L 231.435804 205.262362 
L 232.377396 205.155539 
L 232.572208 205.048715 
L 233.806019 204.941892 
L 233.968363 204.88848 
L 235.364517 204.835068 
L 235.494392 204.674833 
L 236.403515 204.56801 
L 236.565859 204.514598 
L 237.312639 204.407774 
L 237.474982 204.354363 
L 238.54645 204.247539 
L 238.708793 204.194128 
L 240.072479 204.087304 
L 240.234822 204.033892 
L 241.988132 203.927069 
L 242.150475 203.873657 
L 245.657095 203.766834 
L 245.819439 203.713422 
L 247.767561 203.606599 
L 247.897436 203.392952 
L 248.903965 203.286128 
L 249.066309 203.232717 
L 249.748152 203.179305 
L 249.878026 202.965658 
L 251.371587 202.858835 
L 251.53393 202.805423 
L 253.124896 202.698599 
L 253.319709 202.591776 
L 254.228832 202.538364 
L 254.358707 202.271306 
L 256.04708 202.164482 
L 256.241892 202.057659 
L 257.638046 201.950835 
L 257.832858 201.844012 
L 259.229012 201.7906 
L 259.358887 201.683777 
L 260.495292 201.576953 
L 260.690104 201.47013 
L 261.761571 201.363306 
L 261.956383 201.256483 
L 264.164255 201.149659 
L 264.326598 200.989424 
L 264.391536 200.936013 
L 264.521411 200.455307 
L 264.651285 200.348484 
L 266.339658 200.295072 
L 266.469533 200.188248 
L 268.644936 200.081425 
L 268.774811 199.974602 
L 269.424185 199.867778 
L 269.618997 199.760955 
L 271.567119 199.654131 
L 271.696994 199.066602 
L 272.248962 198.959779 
L 272.508711 198.746132 
L 275.430894 198.639309 
L 275.593238 198.585897 
L 277.638766 198.479073 
L 277.80111 198.425662 
L 279.002452 198.318838 
L 279.164795 198.265427 
L 280.78823 198.158603 
L 280.918105 197.731309 
L 281.080448 197.677898 
L 282.054509 197.571074 
L 282.184384 197.464251 
L 284.489662 197.357427 
L 284.619537 197.250604 
L 285.496192 197.14378 
L 285.658535 197.090369 
L 287.54172 196.983545 
L 287.704063 196.930134 
L 291.015871 196.82331 
L 291.178215 196.769898 
L 291.697714 196.663075 
L 291.860057 196.609663 
L 295.723833 196.50284 
L 295.853708 196.396016 
L 298.743422 196.289193 
L 298.905765 195.915311 
L 300.366857 195.808487 
L 300.529201 195.755076 
L 303.938414 195.648252 
L 304.133226 195.541429 
L 304.198164 195.434605 
L 304.360507 195.381194 
L 306.53591 195.27437 
L 306.698254 195.220958 
L 307.574909 195.114135 
L 307.737252 194.9539 
L 311.860777 194.900488 
L 311.990652 194.740253 
L 313.679025 194.633429 
L 313.841368 194.580018 
L 315.724553 194.473194 
L 315.886896 194.419783 
L 317.023301 194.366371 
L 317.153176 194.259547 
L 318.744142 194.152724 
L 318.906486 193.992489 
L 319.29611 193.885665 
L 319.458453 193.832254 
L 321.828669 193.72543 
L 321.991012 193.672019 
L 323.192354 193.565195 
L 323.322229 193.458372 
L 324.004072 193.351548 
L 324.166415 193.298136 
L 327.315879 193.191313 
L 327.445754 192.817431 
L 328.712033 192.710608 
L 328.874377 192.657196 
L 328.971783 192.550372 
L 329.134127 192.496961 
L 339.069549 192.390137 
L 339.199424 192.229902 
L 341.374827 192.123079 
L 341.504702 191.962843 
L 347.154256 191.85602 
L 347.349068 191.749197 
L 348.680285 191.642373 
L 348.875097 191.53555 
L 352.868747 191.428726 
L 353.031091 191.375315 
L 355.141556 191.268491 
L 355.3039 191.215079 
L 360.011862 191.108256 
L 360.174205 190.894609 
L 360.563829 190.894609 
L 360.693704 190.574139 
L 361.115797 190.467315 
L 361.245672 190.360492 
L 362.252202 190.253668 
L 362.414545 190.200257 
L 367.317319 190.093433 
L 367.512132 189.98661 
L 369.817409 189.933198 
L 369.947284 189.719551 
L 370.336909 189.612728 
L 370.531721 189.505904 
L 370.921345 189.399081 
L 371.083689 189.345669 
L 376.538431 189.238846 
L 376.700774 189.185434 
L 376.79818 189.185434 
L 376.928055 189.025199 
L 378.519021 188.971787 
L 378.648896 188.75814 
L 378.81124 188.651317 
L 378.973583 188.597905 
L 379.55802 188.544493 
L 379.687895 188.43767 
L 386.214104 188.330846 
L 386.376447 188.277435 
L 394.623497 188.170611 
L 394.785841 188.1172 
L 395.759902 188.010376 
L 395.954714 187.903553 
L 397.318399 187.796729 
L 397.54568 187.636494 
L 398.487273 187.636494 
L 398.487273 187.636494 
" style="fill:none;stroke:#d62728;stroke-linecap:square;stroke-width:1.5;"/>
   </g>
   <g id="patch_3">
    <path d="M 57.6 307.584 
L 57.6 41.472 
" style="fill:none;stroke:#000000;stroke-linecap:square;stroke-linejoin:miter;stroke-width:0.8;"/>
   </g>
   <g id="patch_4">
    <path d="M 414.72 307.584 
L 414.72 41.472 
" style="fill:none;stroke:#000000;stroke-linecap:square;stroke-linejoin:miter;stroke-width:0.8;"/>
   </g>
   <g id="patch_5">
    <path d="M 57.6 307.584 
L 414.72 307.584 
" style="fill:none;stroke:#000000;stroke-linecap:square;stroke-linejoin:miter;stroke-width:0.8;"/>
   </g>
   <g id="patch_6">
    <path d="M 57.6 41.472 
L 414.72 41.472 
" style="fill:none;stroke:#000000;stroke-linecap:square;stroke-linejoin:miter;stroke-width:0.8;"/>
   </g>
   <g id="legend_1">
    <g id="patch_7">
     <path d="M 64.6 108.1845 
L 153.745313 108.1845 
Q 155.745313 108.1845 155.745313 106.1845 
L 155.745313 48.472 
Q 155.745313 46.472 153.745313 46.472 
L 64.6 46.472 
Q 62.6 46.472 62.6 48.472 
L 62.6 106.1845 
Q 62.6 108.1845 64.6 108.1845 
z
" style="fill:#ffffff;opacity:0.8;stroke:#cccccc;stroke-linejoin:miter;"/>
    </g>
    <g id="line2d_16">
     <path d="M 66.6 54.570438 
L 86.6 54.570438 
" style="fill:none;stroke:#1f77b4;stroke-linecap:square;stroke-width:1.5;"/>
    </g>
    <g id="line2d_17"/>
    <g id="text_14">
     <!-- elitehacker -->
     <defs>
      <path d="M 54.890625 33.015625 
L 54.890625 0 
L 45.90625 0 
L 45.90625 32.71875 
Q 45.90625 40.484375 42.875 44.328125 
Q 39.84375 48.1875 33.796875 48.1875 
Q 26.515625 48.1875 22.3125 43.546875 
Q 18.109375 38.921875 18.109375 30.90625 
L 18.109375 0 
L 9.078125 0 
L 9.078125 75.984375 
L 18.109375 75.984375 
L 18.109375 46.1875 
Q 21.34375 51.125 25.703125 53.5625 
Q 30.078125 56 35.796875 56 
Q 45.21875 56 50.046875 50.171875 
Q 54.890625 44.34375 54.890625 33.015625 
z
" id="DejaVuSans-104"/>
      <path d="M 9.078125 75.984375 
L 18.109375 75.984375 
L 18.109375 31.109375 
L 44.921875 54.6875 
L 56.390625 54.6875 
L 27.390625 29.109375 
L 57.625 0 
L 45.90625 0 
L 18.109375 26.703125 
L 18.109375 0 
L 9.078125 0 
z
" id="DejaVuSans-107"/>
     </defs>
     <g transform="translate(94.6 58.070438)scale(0.1 -0.1)">
      <use xlink:href="#DejaVuSans-101"/>
      <use x="61.523438" xlink:href="#DejaVuSans-108"/>
      <use x="89.306641" xlink:href="#DejaVuSans-105"/>
      <use x="117.089844" xlink:href="#DejaVuSans-116"/>
      <use x="156.298828" xlink:href="#DejaVuSans-101"/>
      <use x="217.822266" xlink:href="#DejaVuSans-104"/>
      <use x="281.201172" xlink:href="#DejaVuSans-97"/>
      <use x="342.480469" xlink:href="#DejaVuSans-99"/>
      <use x="397.460938" xlink:href="#DejaVuSans-107"/>
      <use x="455.324219" xlink:href="#DejaVuSans-101"/>
      <use x="516.847656" xlink:href="#DejaVuSans-114"/>
     </g>
    </g>
    <g id="line2d_18">
     <path d="M 66.6 69.248563 
L 86.6 69.248563 
" style="fill:none;stroke:#ff7f0e;stroke-linecap:square;stroke-width:1.5;"/>
    </g>
    <g id="line2d_19"/>
    <g id="text_15">
     <!-- hak5 -->
     <defs>
      <path d="M 10.796875 72.90625 
L 49.515625 72.90625 
L 49.515625 64.59375 
L 19.828125 64.59375 
L 19.828125 46.734375 
Q 21.96875 47.46875 24.109375 47.828125 
Q 26.265625 48.1875 28.421875 48.1875 
Q 40.625 48.1875 47.75 41.5 
Q 54.890625 34.8125 54.890625 23.390625 
Q 54.890625 11.625 47.5625 5.09375 
Q 40.234375 -1.421875 26.90625 -1.421875 
Q 22.3125 -1.421875 17.546875 -0.640625 
Q 12.796875 0.140625 7.71875 1.703125 
L 7.71875 11.625 
Q 12.109375 9.234375 16.796875 8.0625 
Q 21.484375 6.890625 26.703125 6.890625 
Q 35.15625 6.890625 40.078125 11.328125 
Q 45.015625 15.765625 45.015625 23.390625 
Q 45.015625 31 40.078125 35.4375 
Q 35.15625 39.890625 26.703125 39.890625 
Q 22.75 39.890625 18.8125 39.015625 
Q 14.890625 38.140625 10.796875 36.28125 
z
" id="DejaVuSans-53"/>
     </defs>
     <g transform="translate(94.6 72.748563)scale(0.1 -0.1)">
      <use xlink:href="#DejaVuSans-104"/>
      <use x="63.378906" xlink:href="#DejaVuSans-97"/>
      <use x="124.658203" xlink:href="#DejaVuSans-107"/>
      <use x="182.568359" xlink:href="#DejaVuSans-53"/>
     </g>
    </g>
    <g id="line2d_20">
     <path d="M 66.6 83.926688 
L 86.6 83.926688 
" style="fill:none;stroke:#2ca02c;stroke-linecap:square;stroke-width:1.5;"/>
    </g>
    <g id="line2d_21"/>
    <g id="text_16">
     <!-- singles -->
     <defs>
      <path d="M 54.890625 33.015625 
L 54.890625 0 
L 45.90625 0 
L 45.90625 32.71875 
Q 45.90625 40.484375 42.875 44.328125 
Q 39.84375 48.1875 33.796875 48.1875 
Q 26.515625 48.1875 22.3125 43.546875 
Q 18.109375 38.921875 18.109375 30.90625 
L 18.109375 0 
L 9.078125 0 
L 9.078125 54.6875 
L 18.109375 54.6875 
L 18.109375 46.1875 
Q 21.34375 51.125 25.703125 53.5625 
Q 30.078125 56 35.796875 56 
Q 45.21875 56 50.046875 50.171875 
Q 54.890625 44.34375 54.890625 33.015625 
z
" id="DejaVuSans-110"/>
      <path d="M 45.40625 27.984375 
Q 45.40625 37.75 41.375 43.109375 
Q 37.359375 48.484375 30.078125 48.484375 
Q 22.859375 48.484375 18.828125 43.109375 
Q 14.796875 37.75 14.796875 27.984375 
Q 14.796875 18.265625 18.828125 12.890625 
Q 22.859375 7.515625 30.078125 7.515625 
Q 37.359375 7.515625 41.375 12.890625 
Q 45.40625 18.265625 45.40625 27.984375 
z
M 54.390625 6.78125 
Q 54.390625 -7.171875 48.1875 -13.984375 
Q 42 -20.796875 29.203125 -20.796875 
Q 24.46875 -20.796875 20.265625 -20.09375 
Q 16.0625 -19.390625 12.109375 -17.921875 
L 12.109375 -9.1875 
Q 16.0625 -11.328125 19.921875 -12.34375 
Q 23.78125 -13.375 27.78125 -13.375 
Q 36.625 -13.375 41.015625 -8.765625 
Q 45.40625 -4.15625 45.40625 5.171875 
L 45.40625 9.625 
Q 42.625 4.78125 38.28125 2.390625 
Q 33.9375 0 27.875 0 
Q 17.828125 0 11.671875 7.65625 
Q 5.515625 15.328125 5.515625 27.984375 
Q 5.515625 40.671875 11.671875 48.328125 
Q 17.828125 56 27.875 56 
Q 33.9375 56 38.28125 53.609375 
Q 42.625 51.21875 45.40625 46.390625 
L 45.40625 54.6875 
L 54.390625 54.6875 
z
" id="DejaVuSans-103"/>
     </defs>
     <g transform="translate(94.6 87.426688)scale(0.1 -0.1)">
      <use xlink:href="#DejaVuSans-115"/>
      <use x="52.099609" xlink:href="#DejaVuSans-105"/>
      <use x="79.882812" xlink:href="#DejaVuSans-110"/>
      <use x="143.261719" xlink:href="#DejaVuSans-103"/>
      <use x="206.738281" xlink:href="#DejaVuSans-108"/>
      <use x="234.521484" xlink:href="#DejaVuSans-101"/>
      <use x="296.044922" xlink:href="#DejaVuSans-115"/>
     </g>
    </g>
    <g id="line2d_22">
     <path d="M 66.6 98.604813 
L 86.6 98.604813 
" style="fill:none;stroke:#d62728;stroke-linecap:square;stroke-width:1.5;"/>
    </g>
    <g id="line2d_23"/>
    <g id="text_17">
     <!-- faithwriters -->
     <defs>
      <path d="M 37.109375 75.984375 
L 37.109375 68.5 
L 28.515625 68.5 
Q 23.6875 68.5 21.796875 66.546875 
Q 19.921875 64.59375 19.921875 59.515625 
L 19.921875 54.6875 
L 34.71875 54.6875 
L 34.71875 47.703125 
L 19.921875 47.703125 
L 19.921875 0 
L 10.890625 0 
L 10.890625 47.703125 
L 2.296875 47.703125 
L 2.296875 54.6875 
L 10.890625 54.6875 
L 10.890625 58.5 
Q 10.890625 67.625 15.140625 71.796875 
Q 19.390625 75.984375 28.609375 75.984375 
z
" id="DejaVuSans-102"/>
      <path d="M 4.203125 54.6875 
L 13.1875 54.6875 
L 24.421875 12.015625 
L 35.59375 54.6875 
L 46.1875 54.6875 
L 57.421875 12.015625 
L 68.609375 54.6875 
L 77.59375 54.6875 
L 63.28125 0 
L 52.6875 0 
L 40.921875 44.828125 
L 29.109375 0 
L 18.5 0 
z
" id="DejaVuSans-119"/>
     </defs>
     <g transform="translate(94.6 102.104813)scale(0.1 -0.1)">
      <use xlink:href="#DejaVuSans-102"/>
      <use x="35.205078" xlink:href="#DejaVuSans-97"/>
      <use x="96.484375" xlink:href="#DejaVuSans-105"/>
      <use x="124.267578" xlink:href="#DejaVuSans-116"/>
      <use x="163.476562" xlink:href="#DejaVuSans-104"/>
      <use x="226.855469" xlink:href="#DejaVuSans-119"/>
      <use x="308.642578" xlink:href="#DejaVuSans-114"/>
      <use x="349.755859" xlink:href="#DejaVuSans-105"/>
      <use x="377.539062" xlink:href="#DejaVuSans-116"/>
      <use x="416.748047" xlink:href="#DejaVuSans-101"/>
      <use x="478.271484" xlink:href="#DejaVuSans-114"/>
      <use x="519.384766" xlink:href="#DejaVuSans-115"/>
     </g>
    </g>
   </g>
  </g>
 </g>
 <defs>
  <clipPath id="p9b32bb9427">
   <rect height="266.112" width="357.12" x="57.6" y="41.472"/>
  </clipPath>
 </defs>
</svg>
